<svg xmlns="http://www.w3.org/2000/svg" xmlns:xlink="http://www.w3.org/1999/xlink" width="6.171in" height="1.619in" viewBox="0 0 444.292 116.535">
  <defs>
    <clipPath id="a">
      <rect x="7.243" y="-7.024" width="485.677" height="128.54" fill="none"/>
    </clipPath>
  </defs>
  <title>Nash&amp;amp;Pine</title>
  <g clip-path="url(#a)">
    <path d="M41.607,9.687s-28.74,0-28.74,28.741V79.857s0,28.743,28.74,28.743H406.869s28.743,0,28.743-28.743V38.428s0-28.741-28.743-28.741Z" fill="#231f20"/>
    <path d="M245.212,88.6,242.8,85.357a23.71,23.71,0,0,1-13.916,4.775q-9.363,0-15.352-5.651a19.1,19.1,0,0,1-5.987-14.532q0-12.235,14.4-19.1-4.324-7.524-4.325-13.038,0-14.416,16-14.417,15.222,0,15.221,12.947,0,9.067-12.957,15.149l.967,1.884q4.617,8.907,7.647,13.509t4.49,6.427a28.532,28.532,0,0,0,1.455-9.29q0-6.864-4.736-6.864V53.088h16.639v4.067a4.611,4.611,0,0,0-3.837,4.325,32.638,32.638,0,0,1-6.632,15.587q4.5,7.056,9.014,7.47V88.6Zm-4.87-6.271a177,177,0,0,1-15.286-25.225l-1.177-2.433a22.655,22.655,0,0,0-3.839,12.655q0,16.76,13.548,16.76A16.658,16.658,0,0,0,240.342,82.332Zm-6.113-34.145a22.214,22.214,0,0,0,3.9-12.212q0-8.516-4.44-8.516t-4.439,7.169Q229.251,39.407,234.229,48.187Z" fill="#41ad49"/>
  </g>
  <g>
    <path d="M71.807,83.086,48.259,50.939V73.3l.138,3.749q0,2.648,4.3,2.647V82.7H39.1V79.695q3.273,0,3.856-1.145t.583-5.257V45.04q0-4.111-.583-5.257T39.1,38.638v-3h9.154L71.807,67.778V45.04l-.166-3.78q0-2.622-4.274-2.622v-3H80.961v3q-4.275,0-4.274,2.621l-.165,3.78V83.086Z" fill="#fff"/>
    <path d="M84.42,82.7V79.695l1.076-.138q1.407-.219,2.453-3.171L89,73.436,101.216,34.5h2.973l12.765,38.961,1.326,3.53q.993,2.7,3.254,2.7V82.7H104.963V79.695q3.395,0,3.394-1.381a23.709,23.709,0,0,0-1.31-4.885l-1.3-3.908H93.363l-1.246,3.934a24.434,24.434,0,0,0-1.242,4.861q0,1.38,2.755,1.379V82.7Zm9.895-16.186h10.434L99.406,50.439Z" fill="#fff"/>
    <path d="M125.848,82.094V72.526h3.391q0,8.3,8.15,8.3,6.9,0,6.906-8.19-.01-4.826-5.666-8.412L135.9,62.486q-9.988-6.348-9.994-14.809a12.778,12.778,0,0,1,3.685-9.578,13.446,13.446,0,0,1,9.813-3.6,35.018,35.018,0,0,1,11.015,2.1v8.465h-3.392q0-7.555-6.465-7.555-6.384,0-6.384,7.269.009,4.2,5.583,7.9l2.759,1.822q10.236,6.732,10.243,15.084a13.528,13.528,0,0,1-4.141,10.376q-4.14,3.873-11.123,3.874A46,46,0,0,1,125.848,82.094Z" fill="#fff"/>
    <path d="M158.231,82.7V79.695q4.272,0,4.273-2.649l.166-3.753V45.04l-.166-3.781q0-2.62-4.273-2.621v-3h13.841V55.4h9.458V45.045l-.138-3.783q0-2.624-4.274-2.624v-3h18.254v3q-4.3,0-4.3,2.621l-.138,3.781V73.293l.138,3.753q0,2.649,4.3,2.649V82.7H181.53V59.18h-9.458V73.3l.138,3.75q0,2.648,4.273,2.647V82.7Z" fill="#fff"/>
  </g>
  <g>
    <path d="M287.864,62.627V73.3q0,4.026.566,5.211t4.535,1.186V82.7H274.022V79.695q4.3,0,4.3-2.649l.139-3.753V45.04l-.139-3.781q0-2.373-4.3-2.621v-3h13.853l2.539-.028,2.733-.11,2.234-.056q12.915,0,12.915,12.161,0,15.029-17.892,15.027Zm0-3.005h1.493q9.537,0,9.537-11.4,0-9.58-8.293-9.581h-2.737Z" fill="#fff"/>
    <path d="M313.711,82.7V79.695q4.3,0,4.3-2.649l.138-3.753V45.04l-.138-3.781q0-2.62-4.3-2.621v-3h18.281v3q-4.3,0-4.3,2.621l-.139,3.781V73.293l.139,3.753q0,2.649,4.3,2.649V82.7Z" fill="#fff"/>
    <path d="M370.029,83.086,346.481,50.939V73.3l.138,3.749q0,2.648,4.3,2.647V82.7H337.327V79.695q3.274,0,3.857-1.145t.583-5.257V45.04q0-4.111-.583-5.257t-3.857-1.145v-3h9.154l23.548,32.145V45.04l-.166-3.78q0-2.622-4.273-2.622v-3h13.594v3q-4.275,0-4.275,2.621l-.165,3.78V83.086Z" fill="#fff"/>
    <path d="M383.856,82.7V79.695q4.3,0,4.3-2.649l.139-3.753V45.04l-.139-3.781q0-2.62-4.3-2.621v-3h29.669v8.272h-3v-.772l-.055-2.1q0-2.4-4.063-2.4h-8.7v17.7h5.116l2.379-.083q1.743,0,1.743-2.067V53.059h3v9.4h-3V61.3q0-2.038-1.743-2.04l-2.379-.083H397.7V73.3a18.885,18.885,0,0,0,.442,5.129q.442,1.269,4.919,1.268h2.321l3.536-.111q1.6,0,1.879-.827a15.393,15.393,0,0,0,.276-3.777v-.938h3.392V82.7Z" fill="#fff"/>
  </g>
</svg>
