<svg xmlns="http://www.w3.org/2000/svg" xmlns:xlink="http://www.w3.org/1999/xlink" width="5.561in" height="3.976in" viewBox="0 0 400.389 286.243">
  <defs>
    <clipPath id="a">
      <rect x="-109.926" y="-52.008" width="840.976" height="428.926" fill="none"/>
    </clipPath>
  </defs>
  <title>Nash&amp;amp;Pine</title>
  <path d="M151,205.374,53.313,72.009v92.76l.572,15.555q0,10.981,17.844,10.98v12.468H15.336V191.3q13.581,0,16-4.751t2.419-21.805V47.535q0-17.053-2.419-21.8t-16-4.751V8.511H53.313L151,141.866V47.537l-.687-15.682q0-10.875-17.73-10.876V8.511h56.394V20.979q-17.733,0-17.731,10.874l-.686,15.68V205.374Z" fill="#231f20"/>
  <g clip-path="url(#a)">
    <path d="M304.052,210.466v24.6q0,18.6,2.1,22.437t9.779,4.56q8.159.841,10.2.84v13.079H243.818V262.9q18.713,0,18.714-11.519l.605-16.318V153.111l-.605-16.438q0-10.2-18.714-11.4V112.2h80.7q65.688,0,65.687,44.036,0,54.237-77.98,54.235Zm0-13.079h7q38.238,0,38.238-39,0-33.117-35.223-33.117H304.052Z" fill="#231f20"/>
  </g>
  <path d="M268.636,248.243a34.874,34.874,0,0,1-3.774,11.193,35.844,35.844,0,0,1-7.939,10.151,40.826,40.826,0,0,1-11.975,7.288,41.777,41.777,0,0,1-15.877,2.864q-23.427,0-41.908-20.3-20.3,20.3-48.415,20.3-57.529,0-57.526-47.374A59.615,59.615,0,0,1,90.2,200.739q8.98-14.7,30.584-25.9a101.6,101.6,0,0,1-8.329-16.92,45.046,45.046,0,0,1-3.384-15.877q0-39.564,39.565-39.566,39.826,0,39.826,32.8,0,13.019-10.022,23.687A97.74,97.74,0,0,1,153.585,177.7q9.627,13.538,20.3,27.462t23.166,29.023a88.271,88.271,0,0,0,14.187-19,37.8,37.8,0,0,0,4.815-17.7q0-18.741-22.906-18.741v-7.809h61.431v7.809q-8.853,0-14.187,5.465a81.633,81.633,0,0,0-10.541,13.8,100.246,100.246,0,0,0-4.3,9.241q-1.954,4.819-4.426,10.151a77.178,77.178,0,0,1-6.507,11.193,80.37,80.37,0,0,1-10.542,12.1q10.15,8.334,17.96,14.837t13.8,6.508a20.968,20.968,0,0,0,8.2-1.823,41.376,41.376,0,0,0,7.94-4.424,40.3,40.3,0,0,0,6.377-5.6,17.188,17.188,0,0,0,3.513-5.075ZM181.7,251.367q-16.662-18.742-30.845-35.271a327.616,327.616,0,0,1-25.9-34.49q-20.828,11.459-20.823,30.976,0,51.282,44.51,51.279a67.345,67.345,0,0,0,16.4-2.083Q173.365,259.7,181.7,251.367Zm-33.058-80.693Q170.5,149.853,170.5,136.055q0-25.77-21.865-25.77-18.741,0-18.741,23.687Q129.9,146.211,148.639,170.674Z" fill="#209847"/>
  <g clip-path="url(#a)">
    <path d="M262.9,238.917s.437,26.211-16.163,36.259c0,0,17.912,1.584,24.463-27.823Z" fill="#231f20"/>
  </g>
  <rect x="151.093" y="100.596" width="19.221" height="74.102" fill="#231f20"/>
  <polygon points="151.094 174.698 155.025 179.503 162.015 172.95 151.094 174.698" fill="#231f20"/>
  <polygon points="151.107 174.705 148.444 170.862 150.374 166.856 153.54 171.995 151.107 174.705" fill="#231f20"/>
</svg>
