<svg version="1.2" baseProfile="tiny-ps" xmlns="http://www.w3.org/2000/svg" viewBox="0 0 525 533" width="525" height="533">
	<title>nash&amp;pine logo 2</title>
	<style>
		tspan { white-space:pre }
		.shp0 { fill: #000000 } 
		.shp1 { fill: #ffffff } 
		.shp2 { fill: #28964b } 
	</style>
	<g id="Background">
		<path id="Path 1" class="shp0" d="M238.52 11.2C236.34 11.75 234.65 12.6 234.77 13.1C234.9 13.59 235.9 14.22 237 14.5C238.91 14.98 239 15.83 239 33.5C239 43.67 238.78 52.67 238.5 53.5C238.22 54.33 237.1 55 236 55C234.9 55 234 55.45 234 56C234 56.57 237 57 241 57C245 57 248 56.57 248 56C248 55.45 247.1 54.77 246 54.5C244.17 54.04 244 53.15 243.96 44.25C243.92 37.51 244.31 34.13 245.21 33.3C245.92 32.64 247.85 31.81 249.5 31.46C251.63 31.01 253.18 31.35 254.86 32.66C256.87 34.22 257.29 35.62 257.7 42C257.98 46.31 257.72 50.67 257.09 52.25C256.49 53.76 255.32 55 254.5 55C253.68 55 253 55.45 253 56C253 56.57 256 57 260 57C264 57 267 56.57 267 56C267 55.45 266.21 54.85 265.25 54.66C263.76 54.38 263.41 52.76 262.92 43.91C262.57 37.58 261.78 32.61 260.92 31.24C260.14 29.99 258.6 28.69 257.5 28.34C256.4 27.99 254.15 27.77 252.5 27.84C250.85 27.91 248.49 28.65 247.25 29.48C246.01 30.32 244.76 30.66 244.47 30.25C244.18 29.84 243.96 25.11 243.97 19.75C243.99 14.39 243.66 10.05 243.25 10.1C242.84 10.16 240.71 10.65 238.52 11.2ZM214.5 30.81C212.85 31.8 211.16 33.82 210.75 35.3C210.34 36.79 210.45 39.13 211 40.5C211.67 42.18 214.04 43.93 218.25 45.87C221.69 47.44 224.8 49.58 225.17 50.62C225.53 51.66 225.2 53.51 224.42 54.75C223.56 56.11 222.01 57 220.5 57C219.13 57 216.96 55.99 215.68 54.75C214.4 53.51 213.12 51.83 212.82 51C212.52 50.17 211.87 49.86 211.39 50.29C210.87 50.75 210.92 52.65 211.5 54.79C212.48 58.44 212.59 58.51 218 58.83C222.69 59.11 223.98 58.78 226.75 56.58C229.31 54.55 230 53.25 230 50.5C230 48.16 229.25 46.3 227.75 44.9C226.51 43.74 223.53 42.05 221.12 41.15C218.7 40.24 216.12 38.6 215.38 37.5C214.23 35.8 214.25 35.16 215.51 33.25C216.33 32.01 217.9 31 219 31C220.1 31 222.35 32.35 224 34C226 36 227 36.5 227 35.5C227 34.67 226.55 32.88 226 31.5C225.18 29.45 224.32 29 221.25 29C219.19 29.01 216.15 29.82 214.5 30.81ZM278.69 32.28C275.59 33.71 273.99 35.03 274.2 36C274.38 36.83 275.53 37.61 276.76 37.75C277.99 37.89 279 37.55 279 37C279 36.45 279.9 35.1 281 34C282.1 32.9 283.45 32 284 32C284.55 32 285.9 32.9 287 34C288.11 35.11 289 37.33 289 39C289 41.64 288.55 42.11 285.25 42.92C283.19 43.42 280.04 44.1 278.25 44.42C276.46 44.74 274.32 45.67 273.5 46.5C272.68 47.33 272 49.58 272 51.5C272 53.67 272.76 55.76 274 57C275.1 58.1 277.13 59 278.5 59C279.88 59 282.11 58.44 283.46 57.75C285.64 56.64 286.11 56.76 287.71 58.88C289.22 60.9 289.94 61.13 292.4 60.38C294 59.9 295.47 59.05 295.68 58.5C295.89 57.95 295.04 57.18 293.78 56.79C291.7 56.15 291.57 55.71 292.26 51.79C292.68 49.43 293.31 44.58 293.66 41C294.29 34.69 294.22 34.43 291.4 32.22C289.81 30.96 287.38 29.96 286 30C284.63 30.03 281.33 31.06 278.69 32.28ZM187.5 35.14C186.4 35.76 184.03 37.67 182.23 39.38C180.43 41.1 178.97 43.29 178.98 44.25C178.99 45.21 179.68 46.23 180.5 46.5C181.47 46.82 182.35 46.03 183 44.25C183.55 42.74 184.38 40.83 184.85 40C185.32 39.17 186.89 38.39 188.35 38.25C190.17 38.08 191.47 38.71 192.51 40.25C193.34 41.49 194.01 43.29 194.01 44.25C194 45.27 191.51 47.66 188 50C182.57 53.62 182 54.33 182 57.5C182 59.67 182.76 61.76 184 63C185.19 64.19 187.31 64.99 189.25 64.98C191.43 64.97 193.4 64.07 195.26 62.23C197.47 60.03 198.26 59.75 199.26 60.77C199.94 61.46 201.18 62.04 202 62.04C202.82 62.05 204.63 60.85 206 59.38C208.47 56.74 208.47 56.71 206.25 57.35C204.91 57.74 203.63 57.49 203.08 56.75C202.57 56.06 201.22 51.67 200.07 47C198.92 42.33 197.2 37.75 196.24 36.83C195.28 35.91 193.38 34.9 192 34.58C190.63 34.27 188.6 34.52 187.5 35.14ZM307.5 38.02L309.5 40.11C303.93 58.04 303.14 59.54 301.24 59.75C300.01 59.89 299 60.45 299 61C299 61.55 301.36 62.68 304.25 63.51C307.14 64.34 310.18 65 311 64.98C312.23 64.94 312.19 64.71 310.79 63.72C309.85 63.05 309.06 61.83 309.03 61C309.01 60.17 310.04 55.9 311.34 51.5C313.26 45 314.19 43.27 316.35 42.25C318.06 41.44 319.97 41.29 321.75 41.83C323.26 42.29 324.91 43.75 325.42 45.08C326.08 46.85 325.66 49.8 323.85 56C321.89 62.74 320.87 64.73 318.94 65.63C317.6 66.25 316.95 66.99 317.5 67.28C318.05 67.56 320.86 68.51 323.75 69.39C326.64 70.28 328.99 70.66 328.97 70.25C328.96 69.84 328.34 68.83 327.59 68C326.44 66.73 326.59 65.28 328.59 58.5C329.89 54.1 330.96 48.81 330.98 46.75C330.99 44.31 330.3 42.3 329 41C327.76 39.76 325.67 39 323.5 39C321.57 39 318.88 39.45 317.5 40C315.18 40.93 315.04 40.82 315.5 38.5C315.98 36.09 315.81 36 310.75 35.97L305.5 35.93L307.5 38.02ZM366.85 39.89C366.96 40.22 367.71 41.29 368.53 42.25C369.84 43.81 369.75 44.61 367.75 49.52C366.51 52.56 365.27 55.05 365 55.05C364.73 55.06 363.15 54.38 361.5 53.54C359.85 52.7 356.48 52.01 354 52C351.49 52 347.96 52.82 346 53.87C344.07 54.91 341.7 56.82 340.72 58.13C339.74 59.43 338.58 62.08 338.15 64C337.72 65.92 337.73 69.08 338.16 71C338.59 72.92 339.97 75.52 341.22 76.78C343.02 78.57 344.6 79.05 348.75 79.03C353.28 79 353.93 79.24 353.49 80.75C353.07 82.17 353.91 82.69 357.97 83.5C360.71 84.05 362.99 84.28 363.03 84C363.06 83.72 362.37 82.83 361.5 82C360.63 81.17 359.93 80.16 359.96 79.75C359.98 79.34 363.82 70.67 368.5 60.5C373.18 50.33 376.89 41.85 376.75 41.68C376.61 41.5 374.28 40.89 371.57 40.32C368.87 39.74 366.74 39.55 366.85 39.89Z" />
		<path id="Path 2" class="shp1" d="M283.91 45.18C282.03 45.62 279.6 46.9 278.5 48.02C276.77 49.77 276.67 50.38 277.75 52.52C278.44 53.88 279.79 55.28 280.75 55.63C281.71 55.97 283.51 55.75 284.75 55.13C286.42 54.29 287.15 52.83 287.57 49.45C287.88 46.95 287.95 44.79 287.73 44.64C287.5 44.5 285.78 44.74 283.91 45.18Z" />
		<path id="Path 3" class="shp0" d="M151.69 49.25C148.42 53.26 148.18 53.37 147.61 51.25L147 49C141.5 53.26 139.93 54.84 139.95 55.25C139.98 55.66 140.97 56.11 142.15 56.25C143.86 56.45 145.07 58.44 148.1 66C151.68 74.96 151.8 75.6 150.2 77.26C149.26 78.22 148.72 79.24 149 79.51C149.28 79.78 152.09 78.88 155.25 77.5C158.41 76.13 161 74.55 161 74C161 73.45 160.21 73.26 159.25 73.59C157.83 74.07 156.78 72.52 153.66 65.34C151.19 59.65 150.03 55.7 150.41 54.25C150.73 53.01 152.46 51.28 154.25 50.4C156.53 49.28 158.1 49.08 159.5 49.74C160.68 50.29 163.03 54.21 165.25 59.34C168.67 67.25 168.87 68.17 167.5 70C166.68 71.1 166.34 72.16 166.75 72.36C167.16 72.56 169.86 71.66 172.75 70.36C175.64 69.06 178 67.55 178 67C178 66.45 177.55 66.22 177 66.5C176.45 66.78 175.44 66.61 174.75 66.13C174.06 65.66 172.04 61.72 170.26 57.38C168.49 53.05 166.12 48.49 165.01 47.25C163.57 45.64 161.88 45 159.08 45C155.67 45 154.69 45.56 151.69 49.25Z" />
		<path id="Path 4" class="shp1" d="M189.99 51.05C187.91 52.89 186.62 54.88 186.76 56.05C186.89 57.12 187.68 58.67 188.5 59.5C189.32 60.33 190.79 61.01 191.75 61.03C192.71 61.05 194.31 60.26 195.29 59.28C196.76 57.82 196.94 56.7 196.29 53.09C195.86 50.66 195.04 48.52 194.48 48.34C193.92 48.16 191.9 49.38 189.99 51.05ZM349.65 56C348.19 57.1 346.32 59.35 345.5 61C344.68 62.65 344 65.8 344 68C344 70.93 344.67 72.67 346.5 74.5C348.06 76.06 350.13 77 352 77C354.78 77 355.29 76.39 359 68.5C362.15 61.8 362.79 59.58 362 58C361.45 56.9 360.1 55.55 359 55C357.9 54.45 355.94 54 354.65 54C353.36 54 351.11 54.9 349.65 56Z" />
		<path id="Path 5" class="shp0" d="M378.43 64.64C378.19 64.84 378.56 65.85 379.25 66.89C380.35 68.56 379.28 70.64 370.41 84.14C361.28 98.04 360.06 99.48 357.66 99.25C356.2 99.11 355.01 99.34 355.01 99.75C355.02 100.16 357.61 102.16 360.76 104.19C363.92 106.22 366.84 107.68 367.25 107.44C367.66 107.2 367.34 106.21 366.53 105.25C365.71 104.29 365.04 103.16 365.03 102.75C365.01 102.34 366.46 99.73 368.25 96.95L371.5 91.9C374.81 95.31 377.4 96.24 381 96.67C385.62 97.21 387.28 96.93 391.38 94.91C394.44 93.4 397.02 91.2 398.3 89C399.43 87.08 400.39 83.9 400.43 81.95C400.47 80 399.71 77.19 398.75 75.7C397.79 74.22 395.88 72.55 394.5 72C393.13 71.45 390.33 71 388.3 71C385.36 71 384.85 70.74 385.82 69.75C386.49 69.06 386.94 68.03 386.83 67.46C386.72 66.88 384.89 65.94 382.75 65.35C380.61 64.77 378.67 64.45 378.43 64.64Z" />
		<path id="Path 6" class="shp1" d="M378.68 80.8L373.85 88.5C376.84 92.38 378.92 93.95 380.42 94.5C382.56 95.29 383.89 95.08 386.81 93.5C389.1 92.26 391.41 89.8 392.9 87C394.59 83.83 395.11 81.69 394.65 79.75C394.29 78.24 392.99 76.09 391.75 74.98C390.48 73.84 388.19 72.99 386.5 73.03C383.87 73.1 382.9 74.06 378.68 80.8Z" />
		<path id="Path 7" fill-rule="evenodd" class="shp0" d="M117.5 74.03C118.05 74.03 119.51 75.59 123 81L115.25 86.87C110.99 90.11 103.81 96.07 99.29 100.12C94.77 104.18 88.25 110.66 84.79 114.53C81.33 118.4 76.65 123.8 74.4 126.53C72.14 129.26 67.37 135.78 63.79 141C60.22 146.22 55.46 153.65 53.23 157.5C51 161.35 46.83 169.68 43.96 176C41.09 182.32 36.82 193.35 34.46 200.5C32.11 207.65 29.04 219.13 27.65 226C26.25 232.88 24.61 243 24.01 248.5C23.41 254 22.91 265.48 22.9 274C22.89 282.52 23.6 295.35 24.48 302.5C25.35 309.65 27.23 320.68 28.65 327C30.07 333.32 33.24 344.35 35.69 351.5C38.14 358.65 42.24 369 44.81 374.5C47.37 380 51.23 387.65 53.39 391.5C55.55 395.35 59.64 402.1 62.48 406.5C65.32 410.9 71.27 419 75.71 424.5C80.15 430 89.12 439.7 95.64 446.05C102.16 452.4 111.1 460.32 115.5 463.65C119.9 466.99 127.32 472.21 132 475.26C136.68 478.3 145.22 483.29 151 486.34C156.78 489.4 166.68 493.97 173 496.51C179.32 499.06 189 502.4 194.5 503.95C200 505.5 209.22 507.7 215 508.84C220.78 509.98 229.78 511.41 235 512.02C240.22 512.63 251.25 513.13 259.5 513.13C267.75 513.14 279.23 512.63 285 512C290.77 511.37 299.77 510 305 508.95C310.23 507.91 319 505.76 324.5 504.17C330 502.58 339.23 499.43 345 497.17C350.77 494.9 359.89 490.79 365.25 488.02C370.61 485.26 378.49 480.84 382.75 478.21C387.01 475.58 393.2 471.42 396.5 468.98C399.8 466.54 406.32 461.34 411 457.42C415.68 453.5 423.49 446.06 428.37 440.9C433.25 435.73 440.95 426.55 445.49 420.5C450.02 414.45 456.82 404.32 460.59 398C464.37 391.68 469.78 381.32 472.61 375C475.45 368.68 479.39 358.55 481.37 352.5C483.36 346.45 486.11 336.66 487.49 330.75C488.87 324.84 489.99 318.99 489.98 317.75C489.97 315.65 490.26 315.55 494.23 316.24C496.58 316.64 498.73 317.23 499 317.55C499.27 317.86 498.67 322.25 497.66 327.31C496.65 332.36 494.26 341.68 492.34 348C490.43 354.32 487.06 364 484.86 369.5C482.66 375 477.92 385.13 474.34 392C470.75 398.88 465.1 408.55 461.77 413.5C458.45 418.45 452.33 426.77 448.18 432C444.03 437.23 435.88 446.23 430.07 452.01C424.26 457.79 415.68 465.57 411 469.31C406.32 473.04 398 479.11 392.5 482.79C387 486.47 376.2 492.66 368.5 496.56C360.8 500.45 349.1 505.55 342.5 507.88C335.9 510.22 326.23 513.24 321 514.6C315.77 515.96 306.55 517.95 300.5 519.04C294.45 520.12 282.75 521.46 274.5 522.03C264.31 522.73 255.01 522.74 245.5 522.05C237.8 521.5 225.88 520.09 219 518.92C212.13 517.76 201.32 515.32 195 513.5C188.68 511.69 179 508.54 173.5 506.5C168 504.46 157.88 500 151 496.58C144.13 493.17 133.32 487 127 482.87C120.67 478.75 111 471.74 105.5 467.31C100 462.87 90.09 453.68 83.48 446.87C76.87 440.07 67.77 429.55 63.27 423.5C58.77 417.45 51.92 407.1 48.06 400.5C44.19 393.9 38.72 383.32 35.89 377C33.06 370.68 28.81 359.65 26.44 352.5C24.08 345.35 21 334.32 19.61 328C18.21 321.68 16.35 311.1 15.47 304.5C14.49 297.15 13.88 285.33 13.88 274C13.88 262.71 14.51 250.82 15.49 243.5C16.38 236.9 18.02 227.22 19.15 222C20.28 216.78 22.7 207.55 24.53 201.5C26.36 195.45 29.94 185.55 32.47 179.5C35.01 173.45 39.37 164.22 42.15 159C44.94 153.78 49.71 145.68 52.75 141C55.8 136.32 61.01 128.9 64.34 124.5C67.67 120.1 75.82 110.94 82.45 104.14C89.08 97.33 99.45 87.78 105.5 82.9C111.55 78.03 116.95 74.03 117.5 74.03ZM422.3 78.18C423.89 78.41 424.5 79.19 424.5 81C424.5 82.85 423.92 83.56 422.25 83.75C420.85 83.91 419.77 83.34 419.39 82.25C419.06 81.29 419.08 79.91 419.45 79.18C419.81 78.45 421.09 78 422.3 78.18ZM127.2 86.56C127.75 86.87 128.18 87.43 128.14 87.81C128.11 88.19 125.02 90.82 121.29 93.65C117.56 96.48 110.5 102.33 105.6 106.65C100.71 110.97 92.45 119.45 87.24 125.5C82.04 131.55 74.16 141.9 69.73 148.5C65.3 155.1 58.62 166.8 54.88 174.5C51.15 182.2 46.07 194.57 43.59 202C41.12 209.43 37.96 221.13 36.58 228C35.2 234.88 33.63 243.88 33.09 248C32.55 252.13 32.26 265.63 32.44 278C32.67 293.51 33.31 303.45 34.49 310C35.43 315.23 37.68 325.35 39.5 332.5C41.31 339.65 44.91 350.9 47.49 357.5C50.07 364.1 54.89 374.68 58.19 381C61.49 387.32 66.68 396.32 69.74 401C72.79 405.68 78.58 413.55 82.6 418.5C86.63 423.45 92.53 430.28 95.71 433.68C98.89 437.08 104.65 442.67 108.5 446.1C112.35 449.52 119.55 455.32 124.5 458.99C129.45 462.65 137.55 468.14 142.5 471.18C147.45 474.22 156 478.87 161.5 481.51C167 484.15 176.22 488.08 182 490.24C187.78 492.4 197.45 495.44 203.5 496.99C209.55 498.55 219.45 500.65 225.5 501.66C234.15 503.11 241.74 503.49 261 503.47C282.11 503.44 287.16 503.13 297.5 501.19C304.1 499.95 313.77 497.79 319 496.38C324.23 494.98 333.68 491.81 340 489.34C346.32 486.87 356.23 482.43 362 479.48C367.77 476.53 377.23 470.97 383 467.13C388.77 463.29 397.77 456.58 403 452.22C408.23 447.87 416.72 439.85 421.87 434.4C427.03 428.96 434.29 420.45 438.01 415.5C441.73 410.55 447.16 402.68 450.07 398C452.97 393.32 458.39 383.2 462.11 375.5C465.82 367.8 470.64 356.1 472.82 349.5C475 342.9 477.76 332.77 478.96 327C480.16 321.23 481.35 315.82 481.6 315C481.96 313.78 482.28 313.74 483.27 314.78C484.24 315.8 484.11 317.99 482.61 325.28C481.56 330.35 479.15 339.45 477.24 345.5C475.34 351.55 472.43 359.88 470.79 364C469.16 368.13 465.33 376.45 462.3 382.5C459.27 388.55 454.3 397.32 451.26 402C448.22 406.68 443.2 413.87 440.11 417.99C437.03 422.11 429.55 430.62 423.5 436.9C417.45 443.18 408.45 451.7 403.5 455.84C398.55 459.97 389.77 466.48 384 470.28C378.23 474.09 367.43 480.22 360 483.9C352.57 487.58 339.98 492.76 332 495.41C324.02 498.06 312.32 501.29 306 502.59C299.68 503.89 290 505.47 284.5 506.1C278.38 506.81 266.35 507.05 253.5 506.74C238.15 506.37 229.54 505.66 221.5 504.14C215.45 502.98 207.8 501.35 204.5 500.5C201.2 499.65 194.22 497.57 189 495.88C183.78 494.19 175.68 491.19 171 489.22C166.32 487.26 158.22 483.42 153 480.69C147.78 477.97 139.22 472.93 134 469.5C128.78 466.07 121.13 460.58 117 457.31C112.88 454.04 105.5 447.57 100.6 442.93C95.71 438.29 88.13 430.23 83.75 425C79.37 419.77 72.19 410.1 67.79 403.5C63.39 396.9 56.7 385.2 52.92 377.5C49.14 369.8 43.83 356.75 41.11 348.5C38.39 340.25 35.04 328.1 33.65 321.5C32.27 314.9 30.64 305 30.03 299.5C29.43 294 29 281.85 29.09 272.5C29.18 263.15 29.65 251.9 30.15 247.5C30.64 243.1 32.19 233.88 33.59 227C34.98 220.13 38.15 208.43 40.63 201C43.11 193.57 47.96 181.65 51.39 174.5C54.83 167.35 60.03 157.68 62.94 153C65.85 148.32 71.44 140.22 75.37 135C79.29 129.78 88.13 119.83 95 112.89C101.88 105.96 111.7 97.07 116.84 93.14C121.98 89.22 126.64 86.25 127.2 86.56ZM409.53 86C409.79 86 411.8 86.9 418 90L413.29 95.75C410.69 98.91 407.06 103.3 405.22 105.5C402.6 108.62 401.99 110.1 402.43 112.25C402.74 113.76 402.77 115 402.5 115C402.23 115 399.97 113.31 397.49 111.25C395 109.19 392.98 107.16 392.99 106.75C392.99 106.34 393.9 106.22 395 106.5C396.54 106.89 398.52 105.22 403.62 99.25C409.24 92.67 410.15 91.08 409.65 88.75C409.33 87.24 409.27 86 409.53 86ZM425.73 100.03C426.15 100.05 428.2 101.06 430.29 102.28C433.56 104.2 433.86 104.67 432.54 105.75C431.69 106.44 431.23 107.45 431.5 108C431.77 108.55 433.13 109 434.5 109C435.94 109 438.27 110.27 440 112C441.65 113.65 443 116.01 442.99 117.25C442.99 118.49 442.2 120.63 441.24 122.01C440.28 123.4 436.68 127.22 433.22 130.51C428.84 134.69 427.1 137.03 427.47 138.25C427.76 139.21 427.66 139.99 427.25 139.99C426.84 139.98 424.81 138.29 422.73 136.24C420.66 134.18 418.98 132.16 418.98 131.75C418.99 131.34 420.13 131.22 421.5 131.5C423.55 131.91 425.27 130.77 430.99 125.25C434.83 121.54 437.98 117.71 437.99 116.75C437.99 115.79 436.88 113.88 435.5 112.5C434.13 111.13 431.88 110 430.5 110C428.8 110 425.89 112.01 421.42 116.25C415.48 121.89 414.9 122.79 415.45 125.5C416.05 128.43 415.95 128.39 411.02 123.5C408.24 120.75 405.98 118.16 405.99 117.75C405.99 117.34 407.24 117.27 408.75 117.59C411.12 118.1 412.51 117.24 418.84 111.34C424.88 105.71 426.06 104.1 425.56 102.25C425.23 101.01 425.3 100.01 425.73 100.03ZM110 120L148.5 120.04L162.47 139.27C170.16 149.85 186.24 171.89 198.22 188.25C210.2 204.61 220.01 218.34 220.01 218.75C220.02 219.16 218.78 220.23 217.26 221.12C215.74 222.01 213.02 224.93 211.2 227.62C209.39 230.3 207.2 234.97 206.33 238C205.47 241.03 204.7 246.99 204.63 251.24C204.55 255.91 204.1 258.85 203.5 258.65C202.95 258.46 190.57 242.02 176 222.11C161.43 202.21 149.14 186.27 148.7 186.71C148.26 187.14 148.04 211.57 148.22 241C148.47 280.8 148.86 295.08 149.77 296.75C150.45 297.99 152.24 299.64 153.75 300.42C155.26 301.2 158.87 302.21 167.03 303.5L167 315L110 315L109.98 303.5L116.74 302.27C120.46 301.59 124.07 300.47 124.77 299.77C125.47 299.07 126.47 296.7 126.99 294.5C127.55 292.16 127.95 260.18 127.96 217.5C127.97 173.83 127.59 142.89 127.01 140.5C126.47 138.3 125.47 135.93 124.77 135.23C124.07 134.53 120.46 133.41 109.98 131.5L110 120ZM227 120L284 120L284.03 131.5L279.02 132.25C276.26 132.66 272.84 133.56 271.42 134.25C270 134.94 268.09 136.63 267.17 138C265.64 140.29 265.5 147.67 265.5 224.67C265.5 270.96 265.27 309.1 265 309.42C264.73 309.74 261.8 306.31 258.5 301.79C255.2 297.27 250.37 291.09 247.76 288.04C245.15 284.99 243.01 282.16 243.01 281.75C243 281.34 240.05 276.61 236.45 271.25C232.85 265.89 228.95 259.02 227.77 256C226.26 252.11 225.67 248.45 225.74 243.5C225.8 239.65 226.44 234.97 228.5 229.7L236 240.01C240.13 245.69 243.95 250.48 244.5 250.66C245.16 250.89 245.41 234.92 245.25 203.75C245.11 177.76 245.05 152.79 245.12 148.27C245.23 140.5 245.07 139.86 242.37 136.97C240.17 134.62 238.03 133.62 226.99 131.5L227 120ZM450.25 134.06C452.31 134.03 455.01 134.51 456.25 135.12C457.49 135.74 459.52 137.21 460.78 138.37C462.42 139.91 463.05 141.61 463.03 144.5C463.02 146.7 462.34 149.51 461.51 150.75C460.68 151.99 459.21 152.98 458.25 152.96C457.29 152.93 454.25 150.03 451.5 146.51C448.75 142.99 446.16 140.09 445.75 140.06C445.34 140.03 443.88 141.35 442.5 143C440.75 145.1 440 147.2 440 150C440 153.14 440.59 154.49 442.75 156.29C444.26 157.55 446.18 158.84 447 159.15C447.82 159.47 448.27 160.05 448 160.45C447.73 160.84 445.49 160.56 443.03 159.83C439.82 158.88 437.91 157.51 436.25 155C434.98 153.07 433.96 150.26 433.97 148.75C433.99 147.24 434.63 144.76 435.4 143.25C436.18 141.74 437.87 139.51 439.15 138.31C440.44 137.11 442.63 135.67 444 135.12C445.38 134.58 448.19 134.1 450.25 134.06Z" />
		<path id="Path 8" class="shp1" d="M449.25 137.58C448.41 137.86 449.04 139.39 451.18 142.25C452.93 144.59 454.72 146.95 455.15 147.5C455.66 148.13 456.71 147.76 458.01 146.5C459.14 145.4 460.07 143.6 460.07 142.5C460.07 141.4 459.26 139.72 458.28 138.78C457.3 137.83 455.15 137.07 453.5 137.1C451.85 137.13 449.94 137.35 449.25 137.58Z" />
		<path id="Path 9" class="shp0" d="M448.11 167.5C447.5 168.32 447.11 169.74 447.25 170.64C447.39 171.55 448.25 172.78 449.16 173.39C450.43 174.24 451.21 174.14 452.46 173C453.35 172.18 454.08 170.82 454.06 170C454.05 169.18 453.46 167.93 452.77 167.23C452.07 166.54 450.99 165.97 450.36 165.98C449.74 165.99 448.72 166.68 448.11 167.5ZM465.04 174.34C463.13 175.03 460.66 176.86 459.54 178.4C458.42 179.94 457.32 183.29 457.1 185.85C456.74 190.01 457.05 190.89 460.1 194.25C462.39 196.78 464.64 198.18 467 198.54C470.1 199.02 470.28 198.93 468.59 197.79C467.54 197.08 465.85 195.71 464.84 194.75C463.83 193.79 462.71 191.76 462.35 190.25C461.92 188.42 462.33 186.33 463.6 184C464.78 181.82 467.2 179.64 470 178.22C472.84 176.77 475.42 176.14 477 176.5C478.38 176.82 480.56 178.3 481.85 179.79C483.57 181.78 484.1 183.43 483.85 186C483.56 188.95 483.82 189.5 485.5 189.5C487.04 189.5 487.56 188.75 487.75 186.25C487.94 183.79 487.21 182.11 484.75 179.34C482.96 177.33 480.04 175.08 478.25 174.34C476.46 173.6 473.54 173.02 471.75 173.04C469.96 173.06 466.94 173.65 465.04 174.34ZM477.95 201.29C476 201.96 473.58 203.18 472.58 204C471.58 204.82 470.14 206.74 469.38 208.25C468.62 209.76 468.01 212.91 468.03 215.25C468.05 217.59 468.89 220.85 469.91 222.5C470.93 224.15 473.39 226.29 475.38 227.25C477.37 228.21 480.69 229 482.75 229C484.81 229.01 488.07 228.17 490 227.15C491.93 226.13 494.53 223.77 495.78 221.9C497.23 219.74 498.04 217.04 498.02 214.5C498.01 212.3 497.09 209.04 496 207.25C494.88 205.44 492.12 203.13 489.75 202.02C487.41 200.93 484.6 200.05 483.5 200.07C482.4 200.08 479.9 200.63 477.95 201.29Z" />
		<path id="Path 10" class="shp1" d="M482.81 205.93C481.32 206.35 478.85 207.39 477.31 208.24C475.76 209.1 473.75 210.63 472.83 211.65C471.91 212.67 470.87 214.63 470.51 216C470.07 217.73 470.51 219.35 471.94 221.25C473.45 223.27 474.87 224 477.25 223.99C479.04 223.99 482.19 223.54 484.25 222.99C486.31 222.45 489.41 220.76 491.14 219.25C492.87 217.74 494.67 215.49 495.14 214.25C495.69 212.81 495.55 211.09 494.75 209.48C494.06 208.09 492.15 206.51 490.5 205.96C488.85 205.41 487.05 205.01 486.5 205.07C485.95 205.13 484.29 205.52 482.81 205.93Z" />
		<path id="Path 11" fill-rule="evenodd" class="shp2" d="M246 214L246.02 217.75C246.03 221.45 245.97 221.51 241.27 222.29C238.64 222.72 235.15 223.9 233.5 224.91C231.85 225.92 229.48 228.72 228.24 231.12C226.56 234.38 225.94 237.41 225.81 243C225.68 248.58 226.19 251.91 227.77 256C228.95 259.02 232.85 265.89 236.45 271.25C240.05 276.61 243.01 281.34 243.03 281.75C243.04 282.16 244.41 284.07 246.08 286C247.74 287.93 253.65 295.57 259.21 303C264.77 310.43 274.49 323.02 292.31 345.5L295.68 341.5C297.54 339.3 300.51 335.3 305.5 327.72L306.5 345.5L299.91 351.5L302.7 354.22C304.24 355.71 305.73 356.77 306 356.56C306.27 356.36 306.39 363.35 306 388L299.79 384.75C296.37 382.96 291.09 379.19 282.5 371.22L278.5 374.65C276.3 376.54 271.57 379.83 268 381.97C264.43 384.11 258.35 386.91 254.5 388.18C248.43 390.19 245.5 390.5 232.5 390.5C223.22 390.5 215.4 389.98 212 389.14C208.97 388.39 203.35 386.31 199.5 384.5C194.41 382.12 191.04 379.62 187.18 375.36C183.99 371.86 181.08 367.39 179.93 364.25C178.87 361.36 177.56 355.96 177.03 352.25C176.49 348.54 176.32 342.57 176.65 339C176.98 335.43 178.29 329.13 179.58 325C180.86 320.88 183.66 314.8 185.79 311.5C187.93 308.2 191.89 303.44 194.59 300.93C197.29 298.42 202.88 294.16 207 291.47C211.13 288.77 214.72 286.43 215 286.27C215.28 286.11 213.62 282.04 211.33 277.24C209.04 272.43 206.85 267.38 206.48 266C206.1 264.63 205.16 262.49 204.4 261.25C203.63 260.01 203.34 259 203.75 259C204.16 258.99 204.56 255.51 204.63 251.25C204.7 246.99 205.47 241.03 206.33 238C207.2 234.97 209.22 230.47 210.83 228C212.45 225.53 215.96 222.06 218.63 220.3C221.31 218.54 225.97 216.43 229 215.61C232.03 214.8 237.09 214.1 246 214ZM266.25 218C266.66 218 268.01 218.5 269.25 219.12C270.49 219.73 273.42 222.09 275.77 224.37C278.43 226.95 280.68 230.37 281.75 233.5C282.81 236.58 283.48 241.58 283.48 246.5C283.5 252.98 283.02 255.54 280.95 260C279.56 263.02 275.85 268.2 272.72 271.5C269.59 274.8 266.79 277.27 266.49 277C266.19 276.73 265.85 263.34 265.72 247.25C265.6 231.16 265.84 218 266.25 218Z" />
		<path id="Path 12" class="shp1" d="M237.5 223.03C235.85 223.5 233.26 225.03 231.75 226.44C230.24 227.85 229.01 229.34 229.02 229.75C229.03 230.16 232.29 234.96 236.27 240.41C240.25 245.86 243.95 250.48 244.5 250.66C245.14 250.88 245.5 245.73 245.5 236.5L245.5 222.01C241.63 222.14 239.15 222.56 237.5 223.03Z" />
		<path id="Path 13" class="shp0" d="M500.59 236.75C500.27 237.82 498.59 238.78 496.28 239.22C494.2 239.62 489.3 240.29 485.38 240.72C478.55 241.47 478.24 241.41 477.63 239.25C477.29 238.01 476.55 237 476 237C475.45 237 475.21 238.24 475.46 239.75C475.71 241.26 476.2 244.3 476.55 246.5C477.12 250.15 477.29 250.33 478.43 248.56C479.41 247.07 481.81 246.34 489.1 245.33L498.5 244.03C501.99 247.88 502.99 250.01 502.98 251.25C502.98 252.49 502.64 254.03 502.23 254.67C501.83 255.32 500.26 256.33 498.75 256.92C497.24 257.52 492.51 258.29 488.25 258.64C480.78 259.25 480.46 259.19 479.32 256.89C478.18 254.58 478.13 254.62 478.08 258C478.05 259.93 478.35 263.2 478.76 265.27C479.17 267.34 479.84 269.03 480.25 269.02C480.66 269.01 481 268.1 481 267C481 265.9 481.11 264.97 481.25 264.92C481.39 264.88 485.77 264.25 491 263.51L500.5 262.18C504.3 266.25 504.92 268.01 504.75 270.24C504.57 272.58 503.8 273.82 502 274.68C500.63 275.33 495.9 276.18 491.5 276.56C484.34 277.17 483.37 277.05 482.26 275.37C481.58 274.34 480.77 273.73 480.46 274C480.14 274.27 480.14 277.31 480.44 280.75C480.75 284.19 481.45 287 482 287C482.55 287 483 286.32 483 285.5C483 284.68 484.01 283.57 485.25 283.03C486.49 282.5 491.32 281.62 496 281.06C502.66 280.27 504.99 279.56 506.78 277.78C508.13 276.43 509.05 274.28 509.06 272.5C509.06 270.64 507.91 268.07 506.03 265.75L503 262C506.15 257.74 507.05 255.26 507.03 253.75C507.01 252.18 505.72 249.5 504 247.5L501 244C505.96 243.01 505.98 242.94 504.59 239C503.81 236.8 502.71 235 502.14 235C501.57 235 500.87 235.79 500.59 236.75ZM286.42 283.36L286.5 289.88C295.97 291.59 299.87 293.09 301.75 294.52C303.54 295.89 305.03 297.56 305.08 298.25C305.12 298.94 305.34 300.4 305.56 301.5C305.79 302.6 305.97 329.15 305.97 360.5C305.96 392.85 305.55 419.23 305.01 421.5C304.49 423.7 303.04 426.27 301.78 427.21C300.53 428.15 297.36 429.39 294.75 429.96C292.14 430.53 289.1 431 288 431C286.21 431 286 431.67 286 437.5L286 444L371 444C371 432 370.73 430.99 369.25 430.95C368.29 430.92 365.48 430.67 363 430.38C360.52 430.1 357.04 429.45 355.25 428.93C352.99 428.28 351.57 427.01 350.59 424.75C349.55 422.36 349.08 415.6 348.84 399.25L348.5 377C366.32 376.99 375.77 376.34 381 375.55C386.23 374.76 393.65 373.14 397.5 371.95C401.35 370.77 407.61 368.16 411.41 366.15C415.57 363.95 420.35 360.31 423.43 357C426.24 353.98 429.73 349.02 431.18 346C432.63 342.98 434.35 337.8 435.01 334.5C435.67 331.2 436.05 324.23 435.84 319C435.52 310.83 435.03 308.59 432.32 303C430.41 299.04 427.28 294.76 424.34 292.05C421.68 289.6 416.8 286.35 413.5 284.82C410.2 283.29 403.9 281.05 399.5 279.84C391.82 277.72 389.4 277.62 338.92 277.24L286.34 276.85L286.42 283.36Z" />
		<path id="Path 14" class="shp1" d="M348.99 291.25C348.98 291.94 348.87 308.64 348.74 328.37L348.5 364.24C363.23 363.14 369.52 362.13 372 361.29C374.48 360.44 378.3 358.53 380.5 357.04C382.7 355.55 386.02 351.89 387.87 348.92C389.88 345.69 391.84 340.67 392.72 336.5C393.67 332 394.03 326.47 393.72 321C393.41 315.72 392.49 310.8 391.27 308C390.2 305.52 388.01 301.98 386.41 300.11C384.81 298.25 381.48 295.72 379 294.49C376.52 293.26 372.14 291.74 369.25 291.12C366.36 290.51 360.63 290 356.5 290C351.17 290 349 290.36 348.99 291.25ZM215 296.34C212.53 298.15 208.8 301.63 206.72 304.07C204.65 306.51 202.22 310.75 201.33 313.5C200.29 316.7 199.76 321.56 199.84 327C199.91 331.68 200.82 338.88 201.86 343C202.89 347.13 204.54 352.07 205.51 354C206.48 355.93 208.49 359.07 209.99 361C211.48 362.93 214.9 365.93 217.6 367.67C220.29 369.41 225.2 371.62 228.5 372.58C232.18 373.65 237.99 374.34 243.5 374.36C248.45 374.38 254.97 373.81 258 373.09C261.02 372.37 265.3 370.74 267.5 369.48C269.7 368.22 272.63 366.05 274 364.65L276.5 362.1C271.07 355.99 262.64 346.29 254.25 336.61C245.86 326.92 235.72 314.61 231.72 309.25C227.72 303.89 223.55 298.03 222.47 296.24C221.39 294.44 220.28 292.99 220 293.01C219.72 293.03 217.47 294.53 215 296.34ZM302.68 348.75L299.99 351.5L306.04 357.5C306.01 348.59 305.86 346 305.68 346C305.51 346 304.16 347.24 302.68 348.75Z" />
	</g>
</svg>