<svg version="1.2" baseProfile="tiny-ps" xmlns="http://www.w3.org/2000/svg" viewBox="0 0 939 432" width="939" height="432">
	<title>New Project</title>
	<style>
		tspan { white-space:pre }
	</style>
	<path id="N&amp;P " fill="#000000" aria-label="N&amp;P"  d="M324.64 167.89Q324.68 201.39 316.21 230.13Q307.73 258.33 291.81 286.01Q284.91 297.18 272.69 311.56Q261.01 325.4 248.79 336.59Q242.94 341.91 238.69 347.24Q234.97 352.03 230.19 356.82Q217.97 365.88 211.59 371.21Q205.22 376.53 205.22 378.66Q205.22 380.79 209.48 380.78Q220.65 379.17 227.56 377.57Q269.04 368.48 299.34 355.14L310.51 355.13L310.56 396.08L170.66 396.26L170.65 388.81Q206.25 355.26 223.21 306.83Q235.94 270.65 235.89 233.95Q235.82 178.1 200.65 127.08Q168.14 79.79 138.89 79.82Q127.71 79.84 127.73 91.01L128.11 396.31L20.12 396.44L19.72 74.12Q19.72 68.8 16.52 64.55Q13.32 60.3 10.12 55.52Q13.31 52.85 49.46 32.06Q61.69 25.14 87.2 10.74Q97.84 10.73 115.43 43.15Q123.96 58.57 130.35 58.56Q138.86 58.55 167.56 42.02Q196.8 24.97 226.57 7.38Q234.55 10.56 239.87 13.21Q255.31 21.17 269.16 34.98Q297.92 63.67 311.26 96.63Q324.59 129.06 324.64 167.89ZM581.22 309.05Q581.27 350.53 556.31 387.8Q534.54 420.8 512.21 426.68Q512.74 422.96 512.73 417.64Q513.25 411.79 513.24 403.28Q513.2 369.77 507.85 346.37Q500.36 312.87 481.74 305.98L390.35 394.39Q372.26 385.9 357.33 360.39Q342.94 334.88 342.9 306.69Q342.87 277.96 360.91 247.62Q366.75 238.04 382.68 215.15Q391.72 206.1 396.5 201.3Q401.81 196.51 401.81 194.38Q397.54 186.94 394.34 174.71Q391.66 161.95 391.64 144.4Q391.61 123.12 403.28 97.58Q415.48 71.5 439.93 49.66Q460.12 31.55 473.4 20.9Q492 5.45 496.26 5.45Q499.98 5.44 518.11 40.52Q536.77 75.07 536.78 80.92Q536.79 86.77 504.37 114.47Q472.49 141.64 472.49 144.3Q484.75 162.9 492.74 173.53Q517.78 205.41 541.21 220.8Q549.71 212.28 550.24 210.15Q549.7 206.96 549.7 204.84Q549.69 193.14 547.03 192.07Q544.36 191.01 544.36 186.76Q544.35 177.19 572.52 158.53L579.96 158.52Q581.57 165.44 581.57 170.76Q581.05 173.95 581.05 176.08Q581.08 196.82 572.58 213.32Q563.03 225.56 554 237.81Q565.18 250.03 573.19 268.1Q581.19 285.64 581.22 309.05ZM487.33 99.6Q487.32 93.75 474 68.77Q466.53 54.95 462.81 54.95Q456.96 54.96 451.12 65.61Q445.28 75.72 445.29 84.23Q445.3 93.8 449.04 104.97Q453.31 115.6 462.36 125.16Q470.33 119.3 478.84 112.91Q487.34 105.98 487.33 99.6ZM465.22 285.79Q465.22 281.53 438.59 254.44Q422.61 237.97 412.48 220.96L407.16 220.97Q405.57 225.76 401.33 236.4Q400.27 239.6 397.62 244.92Q397.64 261.94 418.95 288.51Q425.87 297.01 440.25 311.35Q447.69 305.49 455.13 299.1Q465.23 290.58 465.22 285.79ZM929.41 126.18Q929.46 162.88 902.36 193.76Q865.18 236.36 793.37 236.45Q759.86 236.49 740.69 224.81Q728.98 215.78 717.8 206.75L718.03 393.45L601 393.59L600.54 21.8Q600.54 19.14 594.15 13.83L594.14 5.32Q606.37 7.44 626.06 9.54Q645.74 11.11 671.27 11.08Q702.66 11.04 717.55 9.42Q757.44 5.12 765.95 5.11Q829.79 5.03 879.3 41.67Q929.35 77.77 929.41 126.18ZM813.44 120.47Q813.39 79.51 804.85 59.31Q792.05 29.01 757.47 29.05Q742.04 29.07 734.07 35.47Q719.73 47.19 719.77 79.1Q719.79 99.84 720.91 140.27Q722.02 180.16 722.03 186.01Q731.59 175.36 741.16 175.34Q747.55 175.34 752.34 179.59Q757.13 183.83 757.14 190.75Q757.15 199.26 752.37 203.52Q747.05 206.19 746.52 206.72Q748.12 208.31 748.65 210.97L764.62 212.55Q792.28 212.51 803.95 185.9Q813.49 163.55 813.44 120.47Z" />
</svg>