<?xml version="1.0" encoding="utf-8"?>
<!-- Generator: Adobe Illustrator 24.1.3, SVG Export Plug-In . SVG Version: 6.00 Build 0)  -->
<svg version="1.1" id="Layer_1" xmlns="http://www.w3.org/2000/svg" xmlns:xlink="http://www.w3.org/1999/xlink" x="0px" y="0px"
	 viewBox="0 0 554 128" style="enable-background:new 0 0 554 128;" xml:space="preserve">
<style type="text/css">
	.st0{clip-path:url(#SVGID_2_);}
	.st1{enable-background:new    ;}
	.st2{fill:#60A5F9;}
	.st3{clip-path:url(#SVGID_6_);}
</style>
<g>
	<g>
		<defs>
			<rect id="SVGID_1_" width="554" height="128"/>
		</defs>
		<clipPath id="SVGID_2_">
			<use xlink:href="#SVGID_1_"  style="overflow:visible;"/>
		</clipPath>
		<g class="st0">
			<g class="st1">
				<path class="st2" d="M102,55.8c1.8-0.3,2.7-1.5,2.9-6.2c0.4-8.5,0.3-26.7,0.3-39.6c0-0.1-0.2-0.8-0.4-0.8
					c-1.5-0.1-7.7-0.1-9.6,0.1c-2.7,0.2-3.8,1.5-4.8,3c-1.1,2-2.1,3.9-3,6.8c-0.3,0.3-1.5,0-1.7-0.4C86.4,15.3,87,8.1,87,5.2
					c0.6,0.1,1.2,0.3,1.8,0.4C91.2,6.3,93,6.4,95,6.4h36.7c0.3,0,0.5-0.3,0.5-0.5l-0.1-3.6c0-0.3,0.3-0.8,0.6-0.8
					c5.8-0.4,8.8-1.7,9.4-1.7c0.2,0,0.5,0.2,0.5,0.5c0,0.9-0.1,3-0.1,12.4v14.9c0,0.3,0.2,0.4,0.3,0.3c3.3-2.5,7.3-4.5,10.8-4.5
					c6.9,0,10.4,4.9,10.4,13.7c0,4.4-0.1,12.7,0,16.5c0,0.2,0.2,0.9,0.5,1.3c0.9,0.9,1.1,1.1,4.1,1.6c0.2,0.3,0.2,1.4-0.1,1.5
					c-1.9,0.1-4.8-0.3-10-0.3c-4.2,0-6.8,0.2-8.9,0.3c-0.2-0.3-0.2-1.3,0-1.5c1.3-0.3,1.9-0.4,2.3-0.6c1.3-0.5,1.5-1.2,1.5-3.5
					c0.2-7.1,0.4-16.3-0.4-18.9c-0.8-2.8-3.3-4.5-6.2-4.5c-1.9,0-2.7,0.3-3.9,0.8c-0.3,0.2-0.5,0.6-0.5,0.9c0,7,0.1,18.7,0.3,21.3
					c0.1,2.2,0.2,3.4,1.8,3.9c0.9,0.3,0.9,0.3,2.2,0.6c0.3,0.3,0.2,1.2,0,1.5c-2,0-4.1-0.3-9.3-0.3c-5.1,0-7.6,0.3-9.6,0.3
					c-0.3-0.3-0.2-1.2,0-1.5c1-0.2,1.9-0.3,2.7-0.6c1.2-0.4,1.4-1.5,1.5-4.2c0.2-3.3,0.3-10.8,0.3-16.1c0-16.6,0.1-22.9-0.1-25.2
					c-0.1-0.7-0.5-0.9-0.9-0.9c-2.1-0.2-14-0.2-14.7-0.1c-0.2,0.1-0.4,0.5-0.4,0.8c0,11.8,0.1,35.3,0.3,41.5
					c0.1,2.7,0.7,3.7,2.4,4.2c1.6,0.4,1.6,0.3,4.4,0.7c0,0.2,0,1.4-0.1,1.5c-5,0-7.3-0.3-12.2-0.3c-4.8,0-9.3,0.3-14.1,0.3
					c-0.2-0.3-0.2-1.4,0-1.5C99.7,56.4,100.6,56.1,102,55.8z"/>
			</g>
			<g class="st1">
				<path class="st2" d="M202.4,49.1c0.1,0.5-0.1,1.6-0.2,1.8c-3.8,4.5-9.3,8.1-15,8.1c-4.5,0-8.5-1.4-11.1-4
					c-3.3-3.3-4.9-8.1-4.9-13.9c0-6.7,3.4-12,8-14.8c2.7-1.8,6.5-2.7,9.6-2.7c8.7,0,11.9,7,12.7,11.9c0.1,0.3,0.6,0.6,1,0.8
					c0.1,0.3-0.1,1.2-0.3,1.3c-2.4,0.7-15.2,1.5-20.5,2c-0.2,0-0.3,0.3-0.3,0.8c0.1,2.4,1,5.7,3.1,8.1c2.1,2.4,5.1,3.6,8.6,3.6
					c3.2,0,6.3-0.6,9.1-3.2C202.1,48.8,202.4,48.9,202.4,49.1z M181.3,36.5c0,0.1,0.2,0.3,0.3,0.3c1.5,0.1,8-0.1,9.4-0.4
					c0.2-0.1,0.3-0.5,0.3-0.8c-0.3-5.4-2-9.9-5.2-9.9C183.3,25.7,181.3,29.9,181.3,36.5z"/>
			</g>
			<g class="st1">
				<path class="st2" d="M218.4,6.2c2.8,0,6.3,0.3,11.1,0.3c6.5,0,12.5-0.2,14.8-0.2c5.9,0,15.4,1.8,15.4,11.7
					c0,4.5-2.8,9.1-10.4,11c-0.2,0.1-0.2,0.3,0,0.3c8.8,1.3,14.1,5.5,14.1,12.9c0,6.5-3.2,10.9-9.3,13.7c-3.9,1.7-9,2.6-14,2.6
					c-3.7,0-16.9-0.4-22.6-0.4c-0.2-0.3,0-1.5,0.1-1.5c2.2-0.3,3.3-0.4,4.6-0.9c1.3-0.4,1.9-1.3,2.1-3.6c0.2-2.1,0.3-5.8,0.3-19.9
					c0-8.4,0.2-15.6-0.2-20.2c-0.2-2.6-1-3.2-2.1-3.6s-2.3-0.6-4.1-0.8C218.2,7.5,218.3,6.4,218.4,6.2z M236.6,9
					c-0.3,0.2-0.5,0.7-0.5,1.1c-0.2,4.5-0.3,12.2-0.3,18.4c0,0.3,0.2,0.4,0.3,0.4c0.9,0.1,2.7,0.1,4.5,0.1c1.8,0,3.8-0.4,4.5-0.9
					c2.7-1.5,3.7-3.9,3.7-7.7c0-6.7-3.5-11.7-11-11.7C237.4,8.7,236.9,8.8,236.6,9z M251.2,43.8c0-7.6-4.4-12.5-12.1-12.5
					c-1.8,0-2.2,0-2.8,0.1c-0.1,0-0.4,0.1-0.4,0.3c0,6.1,0,14.8,0.2,19.7c0,0.6,0.5,2,1,2.6c1.7,2,4.8,2.6,5.5,2.6
					C248.1,56.6,251.2,52,251.2,43.8z"/>
			</g>
			<g class="st1">
				<path class="st2" d="M266.6,25.4c3.7-0.2,10.6-0.3,14.9-1.4c-0.3,1.5-0.5,6.9-0.5,13.7c0,6.7,0,9.5,0.4,11.1
					c0.6,2.4,2.3,3.9,5.3,3.9c1.1,0,2.7-0.3,3.9-1.2c0.5-0.4,0.6-1.1,0.7-1.5c0.2-1.7,0.1-13.4,0-19.7c0-0.9-0.3-2.2-1.5-2.6
					c-1.3-0.4-2.7-0.6-4.3-0.9c-0.1-0.4,0-1.2,0.2-1.5c7.2,0,13.6-0.8,16.2-1.2c-0.1,1.8-0.2,7.1-0.2,9.7v16.4
					c0.1,1.8,0.5,3.1,1.6,3.2c1,0.1,1.5,0.1,3,0c0,0.3,0,1.3-0.3,1.6c-3.3,1.3-11.9,4-14.1,4c-0.3-0.3-0.4-0.4-0.5-0.8
					c-0.2-0.9-0.3-3.3-0.3-4.8c0-0.2-0.3-0.3-0.4-0.2c-3.9,3.5-7.4,5.5-10.9,5.5c-6.5,0-9.4-4-9.4-10.5c0-4.1,0.1-13.5-0.1-17.6
					c-0.1-2.1-0.3-2.8-1.6-3.3c-0.7-0.3-1.6-0.4-2.6-0.5C266.3,26.6,266.5,25.6,266.6,25.4z"/>
			</g>
			<g class="st1">
				<path class="st2" d="M323.3,28.4c-0.1,0-0.3,0.3-0.3,0.5c0,3.4-0.1,11.5-0.1,15.4c0,2.3,0,5,0.3,6.3c0.4,1.7,1.5,3,3.8,3
					c1.5,0,3-0.1,4.3-0.9c0.1,0.2,0.3,1.1,0.1,1.6c-2.7,3.7-7.1,4.6-9.7,4.6c-3.7,0-6.7-1.2-8.1-3.9c-1.2-2.2-1.1-4.7-1.1-10
					c0-4.2,0.1-12.2,0.1-15.7c0-0.3-0.2-0.9-0.5-1l-3.6-0.3c0-0.4,0.3-2,0.6-2.3c1.1-0.2,2.7-0.3,3.2-0.6c0.2-0.1,0.3-0.4,0.3-0.7
					v-7.3c3.5-1,8.1-3.3,9.4-4.5c0.3-0.1,0.7-0.2,1.3-0.2c-0.1,1.4-0.3,4.5-0.3,11.4c0,0.4,0.3,0.8,0.4,0.8c2.9,0,6.4-0.2,8.2-0.3
					c-0.3,1.4-0.5,2.7-0.6,4.1C328.3,28.5,326.1,28.4,323.3,28.4z"/>
			</g>
			<g class="st1">
				<path class="st2" d="M335.2,56.2c0.9-0.3,1.7-1.1,1.8-3.6c0.1-2.4,0.2-9.9,0.2-12.3c0-2.1-0.1-7.8-0.2-8.7
					c-0.1-0.7-0.1-2.2-3.6-3.4c0-0.3,0.1-1.2,0.3-1.4c5.2-0.6,11-2.1,13.9-3.7c0.2,0.2,0.3,0.4,0.3,0.6c-0.2,1.4-0.3,3.4-0.3,4.9
					c0,0.3,0.3,0.3,0.3,0.2c4.1-3.3,8.1-5.3,10.9-5.3c3.9,0,6.5,1.6,8.3,4.6c1.5,2.6,1.9,5.9,1.9,9.8c0,3.8-0.2,13.6,0.1,16
					c0,0.3,0.3,0.9,0.5,1.2c0.9,0.8,1.7,1.3,3.7,1.5c0,0.3-0.1,1.3-0.3,1.5c-1.4,0-2.9-0.3-8.5-0.3c-4.9,0-6.9,0.2-9.9,0.3
					c-0.2-0.2-0.1-1.5,0-1.5c1.1-0.2,1.5-0.3,2.1-0.4c1.4-0.3,1.6-1.1,1.8-3.3c0.2-2.9,0.4-15.3-0.3-18.8c-0.4-1.8-1.2-3.1-2.6-3.9
					c-1-0.7-2.1-0.9-3.4-0.9c-0.9,0-2.6,0.3-3.9,1.1c-0.3,0.2-0.7,0.7-0.7,1c0,4.9,0,17.8,0.2,21.3c0.2,2.7,0.9,3.2,2.1,3.4
					c0.8,0.2,1,0.3,2.3,0.4c0.1,0.2,0,1.3-0.1,1.5c-3.2-0.1-6.3-0.3-10-0.3c-5.7,0-7.1,0.2-9,0.3c-0.2-0.3-0.3-1.1-0.1-1.5
					C333.5,56.5,334.3,56.4,335.2,56.2z"/>
			</g>
			<g class="st1">
				<path class="st2" d="M407.8,49.1c0.1,0.5-0.1,1.6-0.2,1.8c-3.8,4.5-9.3,8.1-15,8.1c-4.5,0-8.5-1.4-11.1-4
					c-3.3-3.3-4.9-8.1-4.9-13.9c0-6.7,3.4-12,8-14.8c2.7-1.8,6.5-2.7,9.6-2.7c8.7,0,11.9,7,12.7,11.9c0.1,0.3,0.6,0.6,1,0.8
					c0.1,0.3-0.1,1.2-0.3,1.3c-2.4,0.7-15.2,1.5-20.5,2c-0.2,0-0.3,0.3-0.3,0.8c0.1,2.4,1,5.7,3.1,8.1c2.1,2.4,5.1,3.6,8.6,3.6
					c3.2,0,6.3-0.6,9.1-3.2C407.5,48.8,407.8,48.9,407.8,49.1z M386.7,36.5c0,0.1,0.2,0.3,0.3,0.3c1.5,0.1,8-0.1,9.4-0.4
					c0.2-0.1,0.3-0.5,0.3-0.8c-0.3-5.4-2-9.9-5.2-9.9C388.7,25.7,386.7,29.9,386.7,36.5z"/>
			</g>
			<g class="st1">
				<path class="st2" d="M439.2,25.9c0.1,0.2,0.1,1.5,0,1.8c-0.2,1.3-2.1,5.5-3.4,7.1c-0.1,0.2-0.7,0.3-0.9,0.3
					c-1.7-1.8-4.2-3.5-6.7-3.5c-1,0-2.1,0.3-2.7,0.9c-0.3,0.3-0.5,0.8-0.5,1.3c-0.1,4.3,0.1,17.6,0.2,18.6c0.2,2.1,0.4,3.1,1.9,3.5
					c1.3,0.4,2.6,0.5,3.8,0.7c0.1,0.3,0,1.3-0.3,1.5c-2.5,0-6.4-0.3-11.4-0.3c-2.7,0-7.5,0.3-9,0.3c-0.2-0.3-0.2-1.3,0-1.5
					c1-0.2,2.1-0.3,2.9-0.6s1.3-1.1,1.4-3.6c0.2-1.5,0.3-7.4,0.3-13.1c0-3.1,0-6.1-0.2-7.5c-0.1-1-0.1-2.1-3.6-3.5
					c0-0.3,0.2-1.3,0.3-1.4c4.2-0.4,10-1.7,13.5-3.7c0.3,0,0.5,0.3,0.5,0.3c-0.2,1.4-0.4,5.7-0.4,7c0,0.3,0.3,0.2,0.3,0.1
					c1.6-1.8,2.8-3.1,4.5-4.7c1.1-1.1,3.2-2.4,5-2.4C437,23.5,438.4,24.5,439.2,25.9z"/>
			</g>
			<g class="st1">
				<path class="st2" d="M458.6,37.7c0.1,0.2,0.2,0.8,0.1,1c-0.2,0.9-1.2,4.2-1.6,4.3c-0.7,0.2-14.3,0.5-16.1,0.4
					c-0.2,0-0.3-0.5-0.3-0.9c0.3-1.5,1-4.5,1.5-4.5C444,38.1,456.7,37.7,458.6,37.7z"/>
			</g>
		</g>
	</g>
	<g>
		<defs>
			<rect id="SVGID_3_" width="554" height="128"/>
		</defs>
		<clipPath id="SVGID_4_">
			<use xlink:href="#SVGID_3_"  style="overflow:visible;"/>
		</clipPath>
	</g>
	<g>
		<defs>
			<rect id="SVGID_5_" width="554" height="128"/>
		</defs>
		<clipPath id="SVGID_6_">
			<use xlink:href="#SVGID_5_"  style="overflow:visible;"/>
		</clipPath>
		<g class="st3">
			<g class="st1">
				<path class="st2" d="M41.2,77.4c-3.6-2.1-7.5-2.4-10.7-2.4c-9.2,0-16,7.3-16,23.7c0,14.1,5.8,25.8,19.1,25.8
					c2.8,0,7-0.6,9.7-3.2c2.1-2,4.3-5.2,5.7-8.2c0.3,0,1.3,0.4,1.4,0.8c-0.8,3.2-3.9,9.9-6.1,11.7c-2.8,0.9-6.8,1.9-12.9,1.9
					c-19,0-29.7-9.4-29.7-27.9c0-9.3,4.2-18.2,13.4-23c4.5-2.4,10.5-3.7,17.7-3.7c4.8,0,12.1,1,16.6,1.3c-0.5,2.2-1.5,9-1.6,13.5
					c-0.3,0.3-1.7,0.3-1.7,0.1C45.4,83.4,44.7,79.5,41.2,77.4z"/>
			</g>
			<g class="st1">
				<path class="st2" d="M81.5,93.9c0.1,0.2,0.1,1.5,0,1.8c-0.2,1.3-2.1,5.5-3.4,7.1c-0.1,0.2-0.7,0.3-0.9,0.3
					c-1.7-1.8-4.2-3.5-6.7-3.5c-1,0-2.1,0.3-2.7,0.9c-0.3,0.3-0.5,0.8-0.5,1.3c-0.1,4.3,0.1,17.6,0.2,18.6c0.2,2.1,0.4,3.1,1.9,3.5
					c1.3,0.4,2.6,0.5,3.8,0.7c0.1,0.3,0,1.3-0.3,1.5c-2.5,0-6.4-0.3-11.4-0.3c-2.7,0-7.5,0.3-9,0.3c-0.2-0.3-0.2-1.3,0-1.5
					c1-0.2,2.1-0.3,2.9-0.6c0.8-0.3,1.3-1.1,1.4-3.6c0.2-1.5,0.3-7.4,0.3-13.1c0-3.1,0-6.1-0.2-7.5c-0.1-1-0.1-2.1-3.6-3.5
					c0-0.3,0.2-1.3,0.3-1.4c4.2-0.4,10-1.7,13.5-3.7c0.3,0,0.5,0.3,0.5,0.3c-0.2,1.4-0.4,5.7-0.4,7c0,0.3,0.3,0.2,0.3,0.1
					c1.6-1.8,2.8-3.1,4.5-4.7c1.1-1.1,3.2-2.4,5-2.4C79.3,91.5,80.7,92.6,81.5,93.9z"/>
			</g>
			<g class="st1">
				<path class="st2" d="M114.5,117.1c0.1,0.5-0.1,1.6-0.2,1.8c-3.8,4.5-9.3,8.1-15,8.1c-4.5,0-8.5-1.4-11.1-4
					c-3.3-3.3-4.9-8.1-4.9-13.9c0-6.7,3.4-12,8-14.8c2.7-1.8,6.5-2.7,9.6-2.7c8.7,0,11.9,7,12.7,11.9c0.1,0.3,0.6,0.6,1,0.8
					c0.1,0.3-0.1,1.2-0.3,1.3c-2.4,0.7-15.2,1.5-20.5,2c-0.2,0-0.3,0.3-0.3,0.8c0.1,2.4,1,5.7,3.1,8.1c2.1,2.4,5.1,3.6,8.6,3.6
					c3.2,0,6.3-0.6,9.1-3.2C114.2,116.8,114.5,116.9,114.5,117.1z M93.4,104.6c0,0.1,0.2,0.3,0.3,0.3c1.5,0.1,8-0.1,9.4-0.4
					c0.2-0.1,0.3-0.5,0.3-0.8c-0.3-5.4-2-9.9-5.2-9.9C95.4,93.8,93.4,97.9,93.4,104.6z"/>
				<path class="st2" d="M150.2,117.1c0.1,0.5-0.1,1.6-0.2,1.8c-3.8,4.5-9.3,8.1-15,8.1c-4.5,0-8.5-1.4-11.1-4
					c-3.3-3.3-4.9-8.1-4.9-13.9c0-6.7,3.4-12,8-14.8c2.7-1.8,6.5-2.7,9.6-2.7c8.7,0,11.9,7,12.7,11.9c0.1,0.3,0.6,0.6,1,0.8
					c0.1,0.3-0.1,1.2-0.3,1.3c-2.4,0.7-15.2,1.5-20.5,2c-0.2,0-0.3,0.3-0.3,0.8c0.1,2.4,1,5.7,3.1,8.1c2.1,2.4,5.1,3.6,8.6,3.6
					c3.2,0,6.3-0.6,9.1-3.2C149.9,116.8,150.2,116.9,150.2,117.1z M129.1,104.6c0,0.1,0.2,0.3,0.3,0.3c1.5,0.1,8-0.1,9.4-0.4
					c0.2-0.1,0.3-0.5,0.3-0.8c-0.3-5.4-2-9.9-5.2-9.9C131,93.8,129.1,97.9,129.1,104.6z"/>
				<path class="st2" d="M193.1,123.3c-3.3,1.7-12.3,4.1-13.9,4.1c-0.2,0-0.5-0.4-0.5-0.7c-0.1-0.6-0.2-3-0.2-4.3
					c0-0.1-0.2-0.3-0.3-0.2c-3.5,2.3-8.5,4.5-11.2,4.5c-3.8,0-6.5-1.5-8.7-4.4c-2.3-2.8-3.6-7.1-3.6-12.1c0-5.3,2.5-10.9,6.3-13.8
					c3.3-2.6,10.4-5,14.9-5h2.2c0.2,0,0.4-0.2,0.4-0.3c0.1-4.3-0.1-12.7-0.3-15c-0.2-1.2-0.2-2.6-1.7-3.3c-0.9-0.3-2.3-0.8-3.9-0.9
					c-0.2-0.3,0-1.3,0.2-1.5c4.9,0,13.5-1.2,16.7-2.4c0.2,0.1,0.3,0.5,0.3,0.8c-0.6,1.2-0.8,2.3-0.9,11c-0.1,5.1-0.1,9.9-0.1,21.1
					c0,2.8,0.1,12.7,0.3,16c0.2,4.1,0.6,4.6,1.5,4.7c0.9,0.1,1.5,0.1,2.8,0.1C193.5,122.1,193.3,123.1,193.1,123.3z M167.6,96.1
					c-1.4,1.6-2.3,4.7-2.3,9.2c0,9.4,4.2,15.8,10.2,15.8c0.9,0,1.6-0.1,2.4-0.5c0.3-0.2,0.7-0.6,0.7-1.1c0.1-3,0.2-14.8-0.1-19
					c-0.2-3-1.9-4.3-2.5-4.8c-1.6-1.3-2.8-1.5-4.5-1.5C170.3,94,168.7,94.7,167.6,96.1z"/>
			</g>
			<g class="st1">
				<path class="st2" d="M197.5,123.9c1.5-0.6,1.5-2.1,1.6-4c0.2-3,0.3-17.2-0.1-19.9c0-0.6-0.1-1.1-0.4-1.7c-0.4-0.8-2-1.6-3.5-2
					c0-0.3,0.2-1.4,0.3-1.5c5.2-0.6,11.5-2.1,14.3-3.6c0.2,0.1,0.3,0.3,0.3,0.5c-0.1,0.7-0.3,4.1-0.3,5.1c0,0.3,0.4,0.3,0.5,0.2
					c5.2-4.3,8.2-5.5,11.4-5.5c3.6,0,6.7,2.1,8.5,5.7c0,0,0.3,0.2,0.4,0c5.5-4.4,8.7-5.7,12-5.7c6.2,0,9.8,5.1,9.8,12.8
					c0,4.3,0.2,14.1,0.3,17.3c0,0.3,0.1,1.1,0.3,1.5c0.7,0.9,2.1,1.1,3.9,1.5c0,0.3-0.1,1.3-0.3,1.5c-1.6,0-3.9-0.3-9.7-0.3
					c-3.9,0-6.3,0.1-9.2,0.3c-0.2-0.3-0.2-1.4-0.1-1.5c1.2-0.3,2.3-0.5,2.7-0.7c1.1-0.4,1.3-1.7,1.4-3.9c0.2-5.7,0.3-13.1-0.3-16.9
					c-0.3-2.1-2-5.3-6.2-5.3c-1.2,0-2.9,0.3-4.5,1.4c-0.2,0.2,0,0.6,0,0.8c0.3,2.1,0.3,5.7,0.3,6c0,4.5,0,11.7,0.1,15.3
					c0,0.7,0.3,1.6,0.7,2c0.9,0.8,2.6,1.3,4.2,1.5c0.1,0.3,0,1.3-0.2,1.5c-3.4-0.1-6.9-0.3-10.8-0.3c-4,0-6.9,0.2-9.2,0.3
					c-0.2-0.3-0.2-1.3,0-1.5c1.4-0.2,2.5-0.3,3.3-0.6c1.1-0.4,1.2-2.1,1.3-3.2c0.1-5.4,0.2-16.1-0.3-18.4c-0.5-2.6-2-5-6-5
					c-1.5,0-2.7,0.5-3.7,1.1c-0.5,0.3-0.8,0.9-0.8,1.5c0,6.3,0.1,14.7,0.1,20.7c0,2.1,0.3,2.9,2.4,3.4c0.6,0.2,1.5,0.3,2.1,0.3
					c0.2,0.2,0,1.3-0.2,1.5c-3.3-0.1-6.9-0.3-10.5-0.3c-5.7,0-5.4,0.2-8.6,0.3c-0.2-0.3-0.2-1.5,0-1.5
					C196.1,124.5,196.6,124.3,197.5,123.9z"/>
			</g>
			<g class="st1">
				<path class="st2" d="M296.2,108.9c0,6.9-2.7,12.1-7.9,15.3c-2.1,1.4-6.3,2.7-10.4,2.7c-12.2,0-18.1-8.2-18.1-18
					c0-6.6,3.1-11.4,7.5-14.2c2.8-1.9,7.2-3.2,11.2-3.2C289.6,91.5,296.2,98.9,296.2,108.9z M274.3,94.5c-2.4,2.1-3.1,5.7-3.1,12.3
					c0,12.1,3.5,18.2,8.1,18.2c1.1,0,2.1-0.3,2.7-0.9c2.1-2.1,2.8-6.6,2.8-12.5c0-9.9-2.7-17.9-8-17.9
					C276.1,93.6,274.9,93.9,274.3,94.5z"/>
			</g>
			<g class="st1">
				<path class="st2" d="M338.1,108.9c0,6.9-2.7,12.1-7.9,15.3c-2.1,1.4-6.3,2.7-10.4,2.7c-12.2,0-18.1-8.2-18.1-18
					c0-6.6,3.1-11.4,7.5-14.2c2.8-1.9,7.2-3.2,11.2-3.2C331.5,91.5,338.1,98.9,338.1,108.9z M316.1,94.5c-2.4,2.1-3.1,5.7-3.1,12.3
					c0,12.1,3.5,18.2,8.1,18.2c1.1,0,2.1-0.3,2.7-0.9c2.1-2.1,2.8-6.6,2.8-12.5c0-9.9-2.7-17.9-8-17.9
					C318,93.6,316.8,93.9,316.1,94.5z"/>
			</g>
			<g class="st1">
				<path class="st2" d="M370.5,93.9c0.1,0.2,0.1,1.5,0,1.8c-0.2,1.3-2.1,5.5-3.4,7.1c-0.1,0.2-0.7,0.3-0.9,0.3
					c-1.7-1.8-4.2-3.5-6.7-3.5c-1,0-2.1,0.3-2.7,0.9c-0.3,0.3-0.5,0.8-0.5,1.3c-0.1,4.3,0.1,17.6,0.2,18.6c0.2,2.1,0.4,3.1,1.9,3.5
					c1.3,0.4,2.6,0.5,3.8,0.7c0.1,0.3,0,1.3-0.3,1.5c-2.5,0-6.4-0.3-11.4-0.3c-2.7,0-7.5,0.3-9,0.3c-0.2-0.3-0.2-1.3,0-1.5
					c1-0.2,2.1-0.3,2.9-0.6c0.8-0.3,1.3-1.1,1.4-3.6c0.2-1.5,0.3-7.4,0.3-13.1c0-3.1,0-6.1-0.2-7.5c-0.1-1-0.1-2.1-3.6-3.5
					c0-0.3,0.2-1.3,0.3-1.4c4.2-0.4,10-1.7,13.5-3.7c0.3,0,0.5,0.3,0.5,0.3c-0.2,1.4-0.4,5.7-0.4,7c0,0.3,0.3,0.2,0.3,0.1
					c1.6-1.8,2.8-3.1,4.5-4.7c1.1-1.1,3.2-2.4,5-2.4C368.3,91.5,369.7,92.6,370.5,93.9z"/>
			</g>
			<g class="st1">
				<path class="st2" d="M383.2,74.2c3.2-0.1,8.2,0.3,12.2,0.3c2.5,0,4.2-0.1,4.8-0.2c0.3,1,1.2,2.1,2.8,4.3
					c5.9,8,19.7,26,25.9,33.6c0.2,0,0-0.1,0.2-0.1c0.1-10.2,0.3-26.6-0.3-30.8c-0.4-3.1-1.3-4.1-3.8-4.9c-1.4-0.3-2.3-0.5-4.7-0.8
					c-0.2-0.3-0.1-1.3,0.1-1.5c2.6,0,6.5,0.3,10.6,0.3c3.2,0,7.2-0.3,8.4-0.3c0.3,0.3,0.3,1.3,0,1.5c-1.4,0.3-2.6,0.4-3.3,0.7
					c-2.6,0.9-3.1,2.5-3.3,5.3c-0.6,8.4-0.7,22.6-0.8,33.1c0,3.7,0.1,8.7,0.1,11.5c-1.5-0.1-5.4-0.1-7.5,0.1
					c-3.3-5.1-26.8-36.2-30.2-41c-0.2-0.2-0.3-0.1-0.3,0.1c-0.3,9.3-0.2,29.9,0.1,33.4c0.3,3.4,1.3,4.7,3.8,5.1
					c1.4,0.3,2.7,0.4,4.5,0.7c0.2,0.2,0.3,1.3,0,1.5c-2,0-5.7-0.3-9.6-0.3c-5.6,0-8.4,0.3-10,0.3c-0.2-0.3-0.2-1.4,0-1.5
					c1.9-0.3,3.4-0.4,4.5-0.8c1.7-0.5,2.4-1.5,2.8-4.8c0.5-4.1,0.9-19.6,0.9-36.4c0-2.5-1.4-5.2-3.4-6c-1.6-0.5-2.8-0.9-4.6-1
					C382.9,75.5,383,74.4,383.2,74.2z"/>
			</g>
			<g class="st1">
				<path class="st2" d="M471.8,117.1c0.1,0.5-0.1,1.6-0.2,1.8c-3.8,4.5-9.3,8.1-15,8.1c-4.5,0-8.5-1.4-11.1-4
					c-3.3-3.3-4.9-8.1-4.9-13.9c0-6.7,3.4-12,8-14.8c2.7-1.8,6.5-2.7,9.6-2.7c8.7,0,11.9,7,12.7,11.9c0.1,0.3,0.6,0.6,1,0.8
					c0.1,0.3-0.1,1.2-0.3,1.3c-2.4,0.7-15.2,1.5-20.5,2c-0.2,0-0.3,0.3-0.3,0.8c0.1,2.4,1,5.7,3.1,8.1c2.1,2.4,5.1,3.6,8.6,3.6
					c3.2,0,6.3-0.6,9.1-3.2C471.5,116.8,471.8,116.9,471.8,117.1z M450.7,104.6c0,0.1,0.2,0.3,0.3,0.3c1.5,0.1,8-0.1,9.4-0.4
					c0.2-0.1,0.3-0.5,0.3-0.8c-0.3-5.4-2-9.9-5.2-9.9C452.6,93.8,450.7,97.9,450.7,104.6z"/>
				<path class="st2" d="M472,92.5c2.7,0,5.1,0.3,11,0.3c3.7,0,6.5-0.2,8.5-0.3c0.3,0.3,0.3,1.2,0.2,1.5c-1.2,0.3-2.1,0.6-2.5,0.8
					c-0.7,0.3-0.7,1-0.6,1.2c0.8,3.1,4.7,15.4,5.5,17.6c0,0.1,0.3,0.2,0.3,0c1.7-4.1,5.7-14.6,6.9-19.5c0.8,0.2,3.8,0.2,4.5,0
					c0.3,1,1.1,3.4,2.1,5.8c2.1,5.4,4.7,11.8,5.7,14.1c0.1,0.1,0.3,0.3,0.3,0c1.6-3.9,4.4-11.7,5.5-15.9c0.3-1.5,0.4-2.3-1.5-3.2
					c-0.9-0.4-2.5-0.8-4.1-0.9c-0.2-0.3,0-1.4,0.2-1.5c1,0,5.1,0.3,8.1,0.3c2,0,4.8-0.2,6.8-0.3c0.2,0.3,0.3,1.3,0,1.5
					c-1.4,0.3-2.4,0.5-3.1,0.9c-1.3,0.7-2,1.4-3.1,3.9c-2.7,6.6-8.7,22.2-10.4,27.4c-1.1-0.2-3.6,0-4.6,0.2
					c-1.7-5-6.4-17.2-7.6-19.1c-0.1-0.2-0.3-0.3-0.4-0.1c-1.5,3.3-5.9,14.2-7.7,19c-1-0.2-3.5-0.1-4.5,0.1c-1.8-5.8-5.2-17-8.1-24.9
					c-1.3-3.6-2.1-5.7-3.9-6.6c-0.9-0.4-1.9-0.6-3.2-0.8C471.8,93.8,471.9,92.7,472,92.5z"/>
			</g>
			<g class="st1">
				<path class="st2" d="M551.4,101.9c-0.3,0.2-1.2,0.2-1.5,0c-0.4-3-1.4-6.2-3.9-7.6c-1.1-0.6-2.1-0.9-3.7-0.9
					c-2.7,0-4.7,1.6-4.7,4.1c0,2.6,0.9,3.9,8.1,7.6c6.8,3.4,8.3,6.1,8.3,10.5c0,7.1-6.9,11.4-14.7,11.4c-3.9,0-7.5-0.9-10.1-1.8
					c0-2.6,0-8-0.2-10.4c0.2-0.2,0.9-0.3,1.4-0.3c0.9,4.7,2.6,7.8,5.3,9.4c1.5,0.9,3.3,1.2,4.5,1.2c3,0,5.2-1.4,5.2-4.1
					c0-2.5-1.5-3.9-5.7-6.1c-8.1-4.4-10.3-7.3-10.3-12.3c0-6.2,4.4-11.1,13.4-11.1c1.3,0,3.9,0.2,5.7,0.4c1.9,0.3,3,0.3,3.9,0.3
					C551.8,94.6,551.6,98.6,551.4,101.9z"/>
			</g>
		</g>
	</g>
</g>
</svg>
