<svg version="1.2" baseProfile="tiny-ps" xmlns="http://www.w3.org/2000/svg" viewBox="0 0 584 91" width="584" height="91">
	<title>wilsontimes-svg</title>
	<style>
		tspan { white-space:pre }
	</style>
	<path id="The Daily Drum " fill="#60A5F9" aria-label="The Daily Drum"  d="M58.36 9.88L58.36 27.63L65.93 27.63L65.93 3.97L29.13 3.97L29.13 27.63L36.7 27.63L36.7 9.88L40.44 9.88L40.44 66.17L37.13 66.17L37.13 72L57.58 72L57.58 66.17L54.27 66.17L54.27 9.88ZM104.82 66.78L104.82 32.24C104.82 26.33 100.47 22.15 95.08 22.15C92.12 22.15 88.81 23.45 85.86 25.98L85.86 4.49L70.11 4.49L70.11 9.71L73.15 9.71L73.15 66.78L70.11 66.78L70.11 72L88.81 72L88.81 66.78L85.86 66.78L85.86 38.68C85.86 31.72 87.68 29.54 89.68 29.54C91.16 29.54 92.03 30.41 92.03 33.02L92.03 72L107.78 72L107.78 66.78ZM145.28 44.33C145.28 27.89 138.4 22.15 130.4 22.15C119.7 22.15 113.78 30.59 113.78 47.47C113.78 64.43 119.7 72.87 130.4 72.87C137.45 72.87 144.06 67.3 145.45 57.21L140.67 56.08C138.93 62.95 136.92 65.74 132.75 65.74C129.27 65.74 126.75 63.73 126.75 55.99L126.75 48.68L145.02 48.68C145.19 47.38 145.28 45.73 145.28 44.33ZM126.75 44.16L126.75 30.24C126.75 28.5 128.22 27.02 130.05 27.02C131.79 27.02 133.27 28.5 133.27 30.24L133.27 44.16ZM178.77 72L199.39 72C212.53 72 218.44 61.91 218.44 37.98C218.44 14.06 212.53 3.97 199.39 3.97L178.77 3.97L178.77 9.88L182.16 9.88L182.16 66.17L178.77 66.17ZM203.91 17.19L203.91 58.78C203.91 63.73 201.83 66.17 198.43 66.17L195.91 66.17L195.91 9.88L198.43 9.88C201.83 9.88 203.91 12.32 203.91 17.19ZM255.33 65.21C254.81 65.04 254.55 64.61 254.55 62.52L254.55 36.33C254.55 26.85 250.02 22.15 240.19 22.15C230.71 22.15 225.58 26.59 225.58 32.85C225.58 36.77 228.45 40.07 232.1 40.07C235.06 40.07 238.28 37.29 238.28 33.37C238.28 31.63 237.32 29.98 235.5 28.07C236.28 27.37 237.24 27.11 237.84 27.11C240.54 27.11 242.37 29.37 242.37 33.55L242.37 44.07L236.89 44.07C229.41 44.07 224.53 48.6 224.53 58.6C224.53 68.35 230.19 72.61 235.84 72.61C238.45 72.61 240.89 71.48 243.67 68.87C246.63 72.26 248.2 72.87 251.68 72.87C255.24 72.87 259.25 69.83 259.25 67.48C259.25 66.34 258.64 64.95 257.68 63.56L257.33 63.56C256.46 65.04 255.85 65.39 255.33 65.21ZM236.19 58.34C236.19 51.9 237.76 49.21 239.85 49.21C240.8 49.21 241.5 49.29 242.37 49.47L242.37 60.08C242.37 63.65 241.32 65.56 239.5 65.56C237.41 65.56 236.19 63.39 236.19 58.34ZM279.52 66.78L279.52 23.02L263.77 23.02L263.77 28.24L266.81 28.24L266.81 66.78L263.77 66.78L263.77 72L282.48 72L282.48 66.78ZM272.99 4.92C268.82 4.92 265.51 8.32 265.51 12.49C265.51 16.67 268.82 20.06 272.99 20.06C277.17 20.06 280.56 16.67 280.56 12.49C280.56 8.32 277.17 4.92 272.99 4.92ZM304.31 66.78L304.31 4.49L288.57 4.49L288.57 9.71L291.61 9.71L291.61 66.78L288.57 66.78L288.57 72L307.27 72L307.27 66.78ZM330.06 76.78L341.11 28.24L344.07 28.24L344.07 23.02L333.2 23.02L333.2 28.24L335.55 28.24L331.37 46.42L326.76 28.24L329.28 28.24L329.28 23.02L311.01 23.02L311.01 28.24L313.36 28.24L325.71 71.22L324.06 78.18C323.02 74.09 320.93 72.52 318.49 72.52C315.45 72.52 313.1 76 313.1 79.31C313.1 84.18 315.97 87.57 320.49 87.57C324.06 87.57 328.59 83.48 330.06 76.78ZM375.22 72L395.84 72C408.97 72 414.89 61.91 414.89 37.98C414.89 14.06 408.97 3.97 395.84 3.97L375.22 3.97L375.22 9.88L378.61 9.88L378.61 66.17L375.22 66.17ZM400.36 17.19L400.36 58.78C400.36 63.73 398.27 66.17 394.88 66.17L392.36 66.17L392.36 9.88L394.88 9.88C398.27 9.88 400.36 12.32 400.36 17.19ZM436.73 25.37L436.73 23.02L420.98 23.02L420.98 28.24L424.02 28.24L424.02 66.78L420.98 66.78L420.98 72L439.68 72L439.68 66.78L436.73 66.78L436.73 33.72C436.73 31.28 437.42 29.11 440.29 27.72C439.51 29.72 439.34 31.11 439.34 32.42C439.34 36.16 442.21 38.68 444.99 38.68C448.47 38.68 451.17 35.37 451.17 30.94C451.17 25.54 448.38 22.15 444.64 22.15C441.86 22.15 439.25 23.11 436.73 25.37ZM458.39 28.24L458.39 62.78C458.39 68.61 462.65 72.87 468.05 72.87C471 72.87 474.31 71.56 477.27 69.04L478.57 72L493.02 72L493.02 66.78L490.06 66.78L490.06 23.02L474.31 23.02L474.31 28.24L477.27 28.24L477.27 60.43C477.27 64 475.88 65.47 473.88 65.47C472.4 65.47 471.09 64.61 471.09 62.52L471.09 23.02L455.34 23.02L455.34 28.24ZM533.73 38.68C533.73 32.15 535.47 29.54 537.47 29.54C539.04 29.54 539.82 30.41 539.82 33.02L539.82 72L555.57 72L555.57 66.78L552.61 66.78L552.61 32.24C552.61 26.33 548.35 22.15 542.95 22.15C539.73 22.15 534.78 24.24 532.25 27.02C530.6 24.06 527.64 22.15 523.99 22.15C521.03 22.15 517.72 23.45 514.77 25.98L513.46 23.02L499.02 23.02L499.02 28.24L502.06 28.24L502.06 66.78L499.02 66.78L499.02 72L517.72 72L517.72 66.78L514.77 66.78L514.77 38.68C514.77 31.72 516.59 29.54 518.59 29.54C520.07 29.54 520.94 30.41 520.94 33.02L520.94 72L536.69 72L536.69 66.78L533.73 66.78Z" />
</svg>