<?xml version="1.0" encoding="utf-8"?>
<!-- Generator: Adobe Illustrator 24.1.3, SVG Export Plug-In . SVG Version: 6.00 Build 0)  -->
<svg version="1.1" id="Layer_1" xmlns="http://www.w3.org/2000/svg" xmlns:xlink="http://www.w3.org/1999/xlink" x="0px" y="0px"
	 viewBox="0 0 505 103.5" style="enable-background:new 0 0 505 103.5;" xml:space="preserve">
<style type="text/css">
	.st0{clip-path:url(#SVGID_2_);}
	.st1{enable-background:new    ;}
	.st2{fill:#60A5F9;}
</style>
<g>
	<g>
		<g>
			<defs>
				<rect id="SVGID_1_" width="505" height="103.5"/>
			</defs>
			<clipPath id="SVGID_2_">
				<use xlink:href="#SVGID_1_"  style="overflow:visible;"/>
			</clipPath>
			<g class="st0">
				<g class="st1">
					<path class="st2" d="M56.4,20.4c-2.5,0-4.4-0.5-6.6-0.8V74c7-0.2,14.5-3,18.4-6l0.6,2.1c-5.3,7.5-12.9,13.5-27.2,13.5
						c-19.4,0-33.7-13.4-33.7-33.8C7.8,34.6,18,23.3,31,16.5c-2.6-0.2-5.2-0.4-8.4-0.4c-7,0-14.7,3.4-20,20.4L0.7,35
						C7.3,14.8,12.4,5.9,25.4,5.9c12.9,0,20.9,4.6,35.6,4.6c1.7,0,3.3-0.5,6.7-5L69,6.7C63,17.3,61.3,20.4,56.4,20.4z M32.8,16.7
						h-0.2c-5.9,5.7-12.5,15.2-12.5,27.7c0,8.9,2.1,15.7,6,20.6l3.5-2.4c2.2-1.6,3.3-3.9,3.3-9.8L32.8,16.7L32.8,16.7z M47.9,19.1
						c-2-0.2-2-0.4-4.2-0.8v36.8c0,0-10.7,7.2-16.4,11.2c4.8,5,11.7,7.5,20.6,7.7V19.1z"/>
				</g>
				<g class="st1">
					<path class="st2" d="M99.6,34.2v38.2c0,9-2.9,16.2-16.4,21.9l-1.6-0.7c5.3-4.3,7.5-8.6,7.5-18.1V33c-1.5-1-3.1-1.8-5.5-3.4
						l-3.3,2.5v40.3c0.7,0.7,2.4,1.8,3.5,2.6v0.2c-2,1.7-5.8,5-7.4,6.8c-2.4-2-6.2-4.9-8.3-6.3v-0.4c1-0.5,1.7-1.8,1.7-4.9v-61
						c0-2.4-0.2-4.1-1-5.2L69.2,4c1.4,0.4,3.6,2.1,4.3,4.2h0.2c1.5-3.4,3.6-6.4,8-7.8L82,0.7c-0.9,1.4-1.6,3.3-1.6,6.8v22.4
						c2.7-2,6.8-5.8,9.4-8.1c3.2,2.2,7.5,4.9,11.3,7.3v0.3C99.7,30.4,99.6,31.9,99.6,34.2z"/>
				</g>
				<g class="st1">
					<path class="st2" d="M117.9,51.1v16.4c6.2,4,8.8,5,10.6,5c0.7,0,1.4-0.4,2.1-1.1l0.9-0.9l1.5,1.6c-2.3,2.2-7.2,7.1-9.8,10
						c-4.3-2.9-12.4-7.3-17.6-9.9v-0.4c1.2-0.9,1.7-1.8,1.7-5V30c5.3-1.4,11.9-4.4,18-8.3c3,5.3,6.1,10.9,9.1,15.4
						c0.5-0.4,1-1,1.3-1.4h0.1c0.1,0.5,0.3,2.7,0.3,3.1C132.1,42.2,123.9,47.8,117.9,51.1z M118.1,28.5l-0.2,0.1v19.8
						c3.6-1.9,6.3-3.8,8.6-5.4C123.9,39,120.2,32.5,118.1,28.5z"/>
				</g>
				<g class="st1">
					<path class="st2" d="M207,21.9c-3.1-1.1-9.1-3.5-14.9-6.1v20.9h16.6c-1.3,4.5-2.2,10.5-2.7,14.9l-2.4,0.8l-0.1-0.1
						c0.1-1.4,0.7-4.2,1-5.5h-12.4v27.7c1.1,0.1,3.5,0.1,4.7,0.1c8.5,0,14.9-3.1,19-6.2l0.4,1.6c-5.1,7-12.5,13.6-28,13.6
						c-20.8,0-35-12.3-35-34.4c0-15.6,11.1-28.7,19.8-33l1.8,0.5c-6.3,5.8-9.5,16.5-9.5,25.1c0,9.1,1.8,16.3,5.6,21.7
						c3.3-2.3,4.2-5.7,4.2-10.3V22.9c8.8-6.7,14.5-11.7,20.5-17c8.7,3.5,12.5,4.9,16.7,4.9c0.9,0,1.9-0.6,3.3-2.5l1.5,1.1
						C214.7,12.9,210.6,18.1,207,21.9z M190.3,14.8l-1.1-0.5l-3.1,2.7v38.5c0,0-7.4,4.7-14.2,9.4c4.1,5.1,10.1,8.3,18.4,9.5
						L190.3,14.8L190.3,14.8z"/>
				</g>
				<g class="st1">
					<path class="st2" d="M248.7,82.2c-2.6-1.9-7.7-5.5-9.8-6.9v-0.4c1-0.6,1.7-1.8,1.7-4.9V33.2c-1.8-1.4-3.6-2.4-5.2-3.6
						c0,0-3,2.3-3.6,2.9v40c1.2,1,2.1,1.5,3.5,2.6v0.1c-2.4,2.1-5.3,4.8-7.4,6.9c-3.1-2.3-6.3-4.9-8.3-6.3v-0.4
						c0.9-0.7,1.7-1.8,1.7-5.2v-38c-1.9-1.5-3.8-2.2-5.1-2.3l-0.2-0.2c3-2.8,5.2-4.9,7.8-7.7c3.3,2.5,6.9,5.2,9.3,6.8h0.1l8.1-6.8
						c3.4,2.3,8,5.5,11.6,7.8V30c-1.1,0.8-1.7,1.9-1.7,4.1V72c1.6,1.2,4,2.4,5.2,2.3l0.2,0.2C254.6,76.5,251.2,79.8,248.7,82.2z"/>
					<path class="st2" d="M273.1,82.1c-4-2.5-9.9-6-13.7-7.9v-0.4c1.3-0.8,1.7-2.4,1.7-4.9V33.7h-4.3V31c5.5-3.6,10.6-11,13.5-18.6
						h1.2v15.4h10.7l-2.9,5.9h-7.9v35.9c4.9,3.2,5.3,3,6.9,3c0.8,0,1.7-0.5,2.1-1l0.8-0.9l1.5,1.4L273.1,82.1z"/>
					<path class="st2" d="M297.7,51.1v16.4c6.2,4,8.8,5,10.6,5c0.7,0,1.4-0.4,2.1-1.1l0.9-0.9l1.5,1.6c-2.3,2.2-7.2,7.1-9.8,10
						c-4.3-2.9-12.4-7.3-17.6-9.9v-0.4c1.2-0.9,1.7-1.8,1.7-5V30c5.3-1.4,11.9-4.4,18-8.3c3,5.3,6.1,10.9,9.1,15.4
						c0.5-0.4,1-1,1.3-1.4h0.1c0.1,0.5,0.3,2.7,0.3,3.1C311.9,42.2,303.7,47.8,297.7,51.1z M297.9,28.5l-0.2,0.1v19.8
						c3.6-1.9,6.3-3.8,8.6-5.4C303.7,39,300,32.5,297.9,28.5z"/>
					<path class="st2" d="M341.6,41.9h-0.4c-1.9-3.5-5.7-9.1-7.5-11.3l-1.7,1.7v37.1c4.9,3.1,5.8,3.5,7.3,3.5c0.7,0,1.3-0.6,1.9-1.3
						l0.9-1l1.7,1.5c-6,6-9.9,10-9.9,10c-4.3-2.9-9-5.4-14.3-8v-0.4c1.1-1,1.7-1.9,1.7-5.1V32.1c-2.1-1.6-3.6-2.2-5.1-2.3l-0.2-0.3
						c2.3-2.1,5.4-4.9,7.8-7.5c2.9,2.3,5.9,4.8,8.5,6.8c3.6-3.1,4.7-4,7.7-6.8c2.3,3.4,6,7.9,8.6,11.2v0.1
						C346.5,35.2,343.5,39.2,341.6,41.9z"/>
					<path class="st2" d="M383.6,34.5v37.9c-3.6,2.8-7.3,6.2-10.5,9.6c-2.2-1.5-5.6-3.5-8.8-4v17.3c0,4,0.6,5.5,2.4,6.6l-0.2,0.4
						c-4.7-0.6-7.3-4-8.9-7.8h-0.2c-0.8,2.1-3.3,3.8-4.8,4.2l-0.3-0.2c0.8-1.1,1.4-2.1,1.4-5.7V32.1c-3-1.9-4-2.3-5-2.2l-0.3-0.3
						l7.8-7.7c2.3,1.9,6.7,5.4,9,7.1c3.5-2.8,6-5,8.5-7.1c2.7,2,8.7,5.9,11.6,7.7V30C384.2,30.8,383.6,31.8,383.6,34.5z M373.1,72.4
						V33.1c-1.7-1.3-3.7-2.7-5.1-3.6l-3.7,3.1v37.2C367.7,69.8,371.1,71.1,373.1,72.4L373.1,72.4L373.1,72.4z"/>
					<path class="st2" d="M413.4,41.9H413c-1.9-3.5-5.7-9.1-7.5-11.3l-1.7,1.7v37.1c4.9,3.1,5.8,3.5,7.3,3.5c0.7,0,1.3-0.6,1.9-1.3
						l0.9-1l1.7,1.5c-6,6-9.9,10-9.9,10c-4.3-2.9-9-5.4-14.3-8v-0.4c1.1-1,1.7-1.9,1.7-5.1V32.1c-2.1-1.6-3.6-2.2-5.1-2.3l-0.2-0.3
						c2.3-2.1,5.4-4.9,7.8-7.5c2.9,2.3,5.9,4.8,8.5,6.8c3.6-3.1,4.7-4,7.7-6.8c2.3,3.4,6,7.9,8.6,11.2v0.1
						C418.3,35.2,415.3,39.2,413.4,41.9z"/>
					<path class="st2" d="M433.7,82.1c-2.2-1.7-6.8-5-9.7-6.8v-0.4c1.3-0.8,1.7-1.9,1.7-4.8v-38l-1.3-0.8c-2.1-1.3-2.9-1.3-4-1.3
						l-0.1-0.4l8-7.7c2.2,1.7,6.6,4.9,9.7,6.9v0.4c-1.2,0.7-1.7,1.7-1.7,4.5V72c3.2,2,4.3,2.2,5.2,2.2l0.2,0.3L433.7,82.1z
						 M428.8,17.9l-0.6-4.4c2.4-2.7,7.8-8.4,9.5-10.9c0.8,1,2.1,4.4,3.1,6.7C438.5,11.3,432.2,15.7,428.8,17.9z"/>
					<path class="st2" d="M472.7,55.4V73c-5.4,2-11.2,5.2-16.7,9c-2.9-2-6.7-4.2-10.3-5c-0.2,0.6-0.4,1.7-0.4,3.2
						c0,0.6,0,1.2,0.1,1.8h-0.1c-0.6-0.4-2.2-1.4-2.7-1.9c0.5-11.2,7.1-19.9,11-24.6c-2.9-1.3-8.2-4.1-10.1-4.9v-0.4
						c1.1-0.6,1.7-1.6,1.7-3.7V29.6c5.2-1.5,11-4.6,15.3-7.8c3.3,2.5,6.6,5.3,10.4,7.5c0.5-1.3,1-3.9,1-5.3l0.1-0.1
						c0.6,0.5,1.6,1.8,2,2.3c-0.6,4.3-3.4,11-10.2,19.8l10.5,5v0.4C473.3,52.4,472.7,53.4,472.7,55.4z M462.3,55.8l-3.9-1.8
						c-3.1,3.4-8.2,10.3-10.1,14.8c5.6,0.9,10.5,3.7,13.8,6.2l0.2-0.1V55.8z M466.8,36.7c-3.6-1.9-8-5.4-10.8-7.9h-0.2v17.3
						c0.9,0.5,2,1,3.1,1.4c2.4-2.4,6.5-7.9,8.1-10.9h-0.2V36.7z"/>
				</g>
				<g class="st1">
					<path class="st2" d="M486.6,51.1v16.4c6.2,4,8.8,5,10.6,5c0.7,0,1.4-0.4,2.1-1.1l0.9-0.9l1.5,1.6c-2.3,2.2-7.2,7.1-9.8,10
						c-4.3-2.9-12.4-7.3-17.6-9.9v-0.4c1.2-0.9,1.7-1.8,1.7-5V30c5.3-1.4,11.9-4.4,18-8.3c3,5.3,6.1,10.9,9.1,15.4
						c0.5-0.4,1-1,1.3-1.4h0.1c0.1,0.5,0.3,2.7,0.3,3.1C500.8,42.2,492.6,47.8,486.6,51.1z M486.8,28.5l-0.2,0.1v19.8
						c3.6-1.9,6.3-3.8,8.6-5.4C492.6,39,488.9,32.5,486.8,28.5z"/>
				</g>
			</g>
		</g>
	</g>
</g>
</svg>
