<?xml version="1.0" encoding="utf-8"?>
<!-- Generator: Adobe Illustrator 14.0.0, SVG Export Plug-In . SVG Version: 6.00 Build 43363)  -->
<!DOCTYPE svg PUBLIC "-//W3C//DTD SVG 1.1//EN" "http://www.w3.org/Graphics/SVG/1.1/DTD/svg11.dtd">
<svg version="1.1" id="Layer_1" xmlns="http://www.w3.org/2000/svg" xmlns:xlink="http://www.w3.org/1999/xlink" x="0px" y="0px"
	 width="3571.111px" height="357.111px" viewBox="0 0 3571.111 357.111" enable-background="new 0 0 3571.111 357.111"
	 xml:space="preserve">
<path fill-rule="evenodd" clip-rule="evenodd" fill="#60A5F9" d="M21.61,8.81c71.717,3.532,151.327-14.25,185,28
	c23.225,29.141,24.964,89.866-5,119c-11.33,11.017-26.116,15.882-45,21c29.967,12.406,37.248,45.143,51,82
	c8.269,22.162,15.252,68.107,48,67c0,3.667,0,7.333,0,11c-18.037-2.303-37.963-2.303-56,0c-11.695-30.578-28.379-74.24-41-109
	c-10.916-30.062-20.738-54.398-67-48c0,18.711,0,42.781,0,68c0,22.129-4.321,52.178,2,65c5.605,11.369,19.883,9.402,33,12
	c0,4,0,8,0,12c-32.162-5.354-73.8-5.26-106,0c0-3.333,0-6.667,0-10c8.242-5.759,24.628-3.371,31-11c6.876-34.209,4-88.469,4-143
	c0-46.398,3.681-91.04,0-128c-1.893-19.007-15.67-24.486-35-24C21.249,17.115,19.315,10.849,21.61,8.81z M91.61,26.81
	c0,46,0,92,0,138c24.399-0.935,40.956,2.128,58-3c44.164-13.288,52.9-94.275,22-124c-17.94-17.258-44.982-13.771-79-14
	C91.445,23.978,91.524,25.391,91.61,26.81z"/>
<path fill-rule="evenodd" clip-rule="evenodd" fill="#60A5F9" d="M986.61,39.81c31.489-3.535,58.396,9.609,74,27
	c50.652,56.451,47.03,198.348-5,248c-27.616,26.354-74.743,32.059-109,7c-70.678-51.7-65.125-228.664,7-272
	C961.732,44.93,974.612,41.157,986.61,39.81z M971.61,57.81c-48.734,29.575-53.853,176.942-22,235c7.057,12.862,20.886,27.559,34,31
	c40.409,10.605,59.963-22.099,69-50c14.612-45.113,14.61-117.659,2-164c-7.538-27.702-25.504-61.521-62-58
	C985.687,52.478,977.966,53.953,971.61,57.81z"/>
<path fill-rule="evenodd" clip-rule="evenodd" fill="#60A5F9" d="M2008.61,40.81c37.855-5.08,65.531,11.362,82,33
	c50.676,66.583,40.043,219.415-30,255c-19.727,10.021-51.123,12.861-76,1c-32.293-15.397-54.288-57.086-61-102
	c-7.166-47.953,2.822-110.648,19-139C1955.553,66.128,1975.628,45.236,2008.61,40.81z M1963.61,113.81
	c-17.119,66.166-12.703,195.192,45,210c8.943,2.295,26.447,0.266,32-2c51.68-21.085,57.826-147.983,38-214
	c-8.084-26.919-25.652-60.799-64-55C1984.058,57.43,1971.089,84.903,1963.61,113.81z"/>
<path fill-rule="evenodd" clip-rule="evenodd" fill="#60A5F9" d="M640.61,40.81c1.333,0,2.667,0,4,0c3.937,21.398,2.022,54.977,1,79
	c-13.206,1.316-11.416-15.056-13-20c-8.263-25.79-36.632-60.103-73-38c-28.229,17.156-31.323,62.84-6,84
	c38.188,31.908,108.657,42.125,105,115c-2.204,43.923-31.103,82.312-86,77c-20.816-2.015-33.75-12.391-48-24
	c-2.736,4.321-4.47,9.968-7,15c-2.174,4.324-4.27,11.435-10,12c-5.422-2.745-3-14.075-3-22c0-22.15-1.61-52.28,2-72
	c8.86-2.481,8.239,8.635,9,12c7.43,32.841,20.716,66.535,64,66c40.596-0.502,66.386-50.17,43-87
	c-24.853-39.14-108.414-45.944-114-110c-4.567-52.366,26.992-90.926,82-85c14.403,1.552,28.2,11.022,38,21
	C633.248,56.78,635.068,46.935,640.61,40.81z"/>
<path fill-rule="evenodd" clip-rule="evenodd" fill="#60A5F9" d="M1474.61,40.81c0.851-0.184,0.943,0.39,1,1
	c22.446,77.64,48.649,166.377,73,249c6.461,21.924,11.415,37.247,38,37c0,3.333,0,6.667,0,10c-27.569-4.213-64.431-4.213-92,0
	c0-3.333,0-6.667,0-10c8.154-2.179,18.749-1.918,23-8c2.496-24.855-9.738-43.576-13-66c-29,0-58,0-87,0
	c-2.177,17.896-41.273,79.348,7,73c0,3.667,0,7.333,0,11c-21.855-2.754-49.145-2.754-71,0c0-3.667,0-7.333,0-11
	c36.205,3.001,40.079-43.222,49-72C1424.06,185.615,1454.645,103.858,1474.61,40.81z M1421.61,239.81
	c26.001-0.666,54.666,1.332,79-1c-13.354-42.312-23.928-87.405-37-130C1449.685,152.551,1435.209,195.742,1421.61,239.81z"/>
<path fill-rule="evenodd" clip-rule="evenodd" fill="#60A5F9" d="M2327.61,264.81c0-43.866,0-100.203,0-152
	c0-14.817,2.891-39.066-3-47c-5.967-8.035-20.465-4.49-27-10c0-2.333,0-4.667,0-7c18.727-0.852,52.81,1.633,74-1
	c-0.478,2.495,0.645,4.848,0,7c-1.711,5.716-24.273,6.189-28,12c-8.151,12.711-2.999,49.66-3,68c-0.004,68.68,0.812,147.073-1,210
	c-8.076,0.576-9.359-9.256-12-14c-45.051-80.918-94.675-163.648-141-245c0.003,51.765-0.004,115.975,0,175
	c0.001,19.257-3.979,53.671,6,61c4.488,3.296,10.499,2.479,16,4c4.562,1.262,11.699,0.386,9,10c-19.577,1.568-53.797-0.709-75,1
	c-3.236-11.079,4.965-9.489,12-11c5.849-1.256,13.065-2.242,16-6c6.514-8.341,3-41.935,3-60c0-44.529,0-81.977,0-126
	c0-19.391,4.047-47.701,0-62c-3.789-13.385-24.122-10.806-31-16c0-2,0-4,0-6c16.167-4.01,43.025,0.36,59-2
	C2243.911,119.843,2285.297,192.792,2327.61,264.81z"/>
<path fill-rule="evenodd" clip-rule="evenodd" fill="#60A5F9" d="M292.61,48.81c54,0,108,0,162,0c0.571,10.946,2.607,21.359,4,34
	c0.803,7.287,4.982,29.331,0,31c-8.305,2.782-12.317-21.703-14-26c-4.156-10.613-9.603-19.843-17-23
	c-25.402-10.841-43.498,1.927-72-3c-2.333,37-0.333,78.333-1,117c20.395-2.5,53.239,8.191,67-2c9.669-7.16,4.271-20.534,10-32
	c2,0,4,0,6,0c3.474,17.059,2.128,45.145,2,69c-0.046,8.646,1.646,18.965-7,16c-4.137-1.419-3.886-13.192-5-18
	c-1.493-6.441-3.484-12.609-7-15c-14.832-10.085-41.314,1.342-65-3c-1.812,19.092-1,40.481-1,64c0,16.649-3.407,54.601,5,61
	c10.563,8.04,59.152,5.586,71-1c10.27-5.709,16.974-18.433,21-31c2.479-7.737-0.296-20.176,12-20c1.789,19.535-5.164,47.958-7,70
	c-54.667-0.666-112,1.333-165-1c0-2.667,0-5.333,0-8c4.575-5.06,20.266-2.521,26-8c7.89-7.539,5-40.07,5-60c0-44.101,0-85.356,0-130
	c0-18.57,3.328-50.514-3-61c-4.417-7.32-18.759-9.451-28-9C292.244,56.443,290.322,50.521,292.61,48.81z"/>
<path fill-rule="evenodd" clip-rule="evenodd" fill="#60A5F9" d="M697.61,48.81c54.333,0,108.667,0,163,0
	c1.993,22.342,8.523,45.475,9,66c-12.805,2.156-11.426-15.533-14-23c-8.058-23.375-22.609-33.999-60-30
	c-1.801,56.354-1,129.072-1,195c0,18.194-4.418,51.344,3,62c4.801,6.896,19.227,7.34,27,9c0,2.667,0,5.333,0,8
	c-16.323,1.45-41.729-1.979-64-1c-10.737,0.472-20.479,3.396-29,2c0-2.667,0-5.333,0-8c6.247-4.068,21.718-2.283,27-9
	c7.948-10.108,4-43.796,4-62c0-64.361,0-136.535,0-195c-38.816-7.146-52.085,7.679-61,34c-2,5.905-2.419,19.113-13,18
	c-1.61-16.613,5.443-42.897,8-63C696.524,50.391,696.445,48.978,697.61,48.81z"/>
<path fill-rule="evenodd" clip-rule="evenodd" fill="#60A5F9" d="M1119.61,48.81c40.772,1.894,76.437-2.547,112,0
	c87.476,6.266,87.225,139.252,7,148c29.982,14.166,41.073,63.926,55,101c6.416,17.081,11.234,29.786,32,31c0,2.333,0,4.667,0,7
	c-11.986,3.394-34.744-0.8-50,2c-7.128-20.812-16.945-44.589-27-71c-12.23-32.125-15.38-75.854-68-67c0,16.271,0,37.695,0,60
	c0,20.123-3.663,45.602,2,57c5.375,10.82,18.312,6.781,29,12c0,2.333,0,4.667,0,7c-24.51,0.771-65.143-3.595-93,2c0-3,0-6,0-9
	c7.092-3.876,24.907-2.819,29-13c5.173-12.866,1-44.506,1-63c0-43.051,0-82.187,0-128c0-34.3,7.509-71.64-30-65
	C1119.244,56.443,1117.322,50.521,1119.61,48.81z M1180.61,64.81c0,40.333,0,80.667,0,121c29.509-0.553,51.312,3.479,68-11
	c20.371-17.675,24.748-64.929,10-91c-13.6-24.042-41.94-22.437-76-22C1181.354,62.22,1180.566,63.1,1180.61,64.81z"/>
<path fill-rule="evenodd" clip-rule="evenodd" fill="#60A5F9" d="M1760.61,48.81c2.38,21.955,8.893,45.105,9,66
	c-9.95,3.256-8.711-6.835-10-11c-8.895-28.746-18.905-48.631-65-42c0.002,58.146-0.003,128.891,0,195
	c0.001,18.069-4.463,51.354,3,62c4.747,6.772,18.985,7.273,27,9c0,2.667,0,5.333,0,8c-7.277,3.461-17.038-0.434-27-1
	c-22.529-1.281-48.013,1.665-66,2c0-2.667,0-5.333,0-8c6.368-4.01,21.606-2.251,27-9c8.02-10.035,3.999-43.563,4-62
	c0.003-64.361-0.002-136.538,0-195c-43.275-8.353-54.575,12.214-64,41c-1.421,4.339-0.478,14.334-10,11
	c-0.717-17.425,5.586-45.924,9-66C1651.944,48.81,1706.276,48.81,1760.61,48.81z"/>
<path fill-rule="evenodd" clip-rule="evenodd" fill="#60A5F9" d="M1892.61,50.81c4.819,15.35-22.473,6.997-29,18
	c-6.071,10.234-2,42.743-2,63c0,45.805,0,84.993,0,130c0,16.765-3.461,51.527,4,60c3.734,4.24,9.963,4.619,16,6
	c5.564,1.272,14.006-0.108,11,10c-16.73,1.367-43.221-2.001-66-1c-10.521,0.463-19.75,3.21-28,2c0-2.667,0-5.333,0-8
	c6.59-4.321,23.035-2.461,28-10c5.37-8.155,3-39.691,3-58c0-22.814,0-40.422,0-60c0-48.967,3.728-83.584,0-121
	c-1.744-17.504-13.576-21.858-31-22c0.633-3.367-1.288-9.289,1-11C1826.13,54.589,1867.801,49.989,1892.61,50.81z"/>
<path fill-rule="evenodd" clip-rule="evenodd" fill="#60A5F9" d="M2959.778,147.479c-4.028,0.972-6.121,3.878-9,6
	c-15.15-20.479-64.71-14.092-55,19c6.763,23.049,53.594,16.186,64,40c20.625,47.201-59.393,68.918-80,30
	c3.913-2.086,7.477-4.523,11-7c11.882,23.623,61.933,21.068,59-11c-2.148-23.492-40.107-20.916-56-34
	c-5.84-4.807-10.067-12.24-11-20C2878.278,133.03,2935.071,113.824,2959.778,147.479z"/>
<path fill-rule="evenodd" clip-rule="evenodd" fill="#60A5F9" d="M2558.778,242.478c0-36.332,0-72.667,0-109c4.334,0,8.666,0,13,0
	c0,42,0,84,0,126c-20.041,5.242-26.806-15.438-35-27c-19.686-27.775-41.719-57.602-60-83c0,36.667,0,73.333,0,110c-4,0-8,0-12,0
	c0.666-41.666-1.333-86,1-126c3.248,1.05,8.663-1.336,13,0c5.961,1.836,16.375,20.581,21,27
	C2519.207,187.443,2540.015,217.744,2558.778,242.478z"/>
<path fill-rule="evenodd" clip-rule="evenodd" fill="#60A5F9" d="M2685.778,133.479c0,3.667,0,7.333,0,11c-22.334,0-44.667,0-67,0
	c0,14.667,0,29.333,0,44c21,0,42,0,63,0c0,3.668,0,7.334,0,11c-20.666,0-41.334,0-62,0c-2.33,14.004-0.336,32.332-1,48
	c21.335,2.332,46.999,0.334,70,1c0,3.668,0,7.334,0,11c-27.334,0-54.667,0-82,0c0-42,0-84,0-126
	C2633.112,133.479,2659.444,133.479,2685.778,133.479z"/>
<path fill-rule="evenodd" clip-rule="evenodd" fill="#60A5F9" d="M2697.778,133.479c4.333,0,8.667,0,13,0
	c9.42,37.914,21.559,73.109,31,111c12.361-35.637,22.672-73.328,33-111c5.334,0,10.666,0,16,0c10.77,36.896,22.298,73.037,32,111
	c13.051-34.947,22.066-73.933,33-111c4.333,0,8.667,0,13,0c-12.736,41.929-25,84.333-38,126c-5,0-10,0-15,0
	c-10.221-37.779-22.189-73.811-32-112c-12.025,36.308-22.494,74.171-33,112c-5.334,0-10.666,0-16,0
	C2723.182,216.742,2709.743,175.847,2697.778,133.479z"/>
<path fill-rule="evenodd" clip-rule="evenodd" fill="#60A5F9" d="M3006.778,133.479c14.775,35.558,31.571,69.095,46,105
	c17.407-33.592,31.599-70.401,48-105c5.667,0,11.333,0,17,0c0,42,0,84,0,126c-4,0-8,0-12,0c0-36.666,0-73.332,0-110
	c-18.018,35.648-31.924,75.41-51,110c-6.913,0.666-7.25-8.096-9-12c-13.61-30.365-30.644-64.928-44-97c-2.333,34.333-0.334,73-1,109
	c-4.333,0-8.666,0-13,0c0-42,0-84,0-126C2994.111,133.479,3000.445,133.479,3006.778,133.479z"/>
<path fill-rule="evenodd" clip-rule="evenodd" fill="#60A5F9" d="M3230.778,133.479c0,3.667,0,7.333,0,11c-22.333,0-44.667,0-67,0
	c0,14.667,0,29.333,0,44c21,0,42,0,63,0c0,3.668,0,7.334,0,11c-20.667,0-41.333,0-62,0c-2.33,14.004-0.336,32.332-1,48
	c21.335,2.332,46.999,0.334,70,1c0,3.668,0,7.334,0,11c-27.333,0-54.667,0-82,0c0-42,0-84,0-126
	C3178.111,133.479,3204.445,133.479,3230.778,133.479z"/>
<path fill-rule="evenodd" clip-rule="evenodd" fill="#60A5F9" d="M3259.778,133.479c58.736-4.875,103.614,5.87,109,54
	c6.654,59.467-44.346,79.766-110,72c0-41,0-82,0-123C3258.692,135.06,3258.612,133.646,3259.778,133.479z M3270.778,147.479
	c0,33.667,0,67.333,0,101c30.559,0.68,56.887,0.113,73-16c16.992-16.992,17.923-54.076,0-72c-14.826-14.826-39.633-17.052-72-16
	C3270.612,144.646,3270.692,146.06,3270.778,147.479z"/>
<path fill-rule="evenodd" clip-rule="evenodd" fill="#60A5F9" d="M3407.778,133.479c0,42,0,84,0,126c-4,0-8,0-12,0c0-41,0-82,0-123
	C3394.925,130.625,3403.974,134.674,3407.778,133.479z"/>
<path fill-rule="evenodd" clip-rule="evenodd" fill="#60A5F9" d="M3495.778,133.479c17.895,42.105,36.779,83.22,54,126
	c-4.333,0-8.666,0-13,0c-4.894-10.773-9.773-21.561-14-33c-22.667,0-45.333,0-68,0c-5.869,10.131-10.285,21.715-15,33
	c-4.333,0-8.667,0-13,0c18.888-42.113,37.138-84.861,57-126C3487.778,133.479,3491.778,133.479,3495.778,133.479z M3458.778,215.478
	c19.667,0,39.333,0,59,0c-9.347-22.986-18.774-45.892-29-68C3478.506,169.873,3468.906,192.939,3458.778,215.478z"/>
</svg>
