<svg id="Layer_1" data-name="Layer 1" xmlns="http://www.w3.org/2000/svg" xmlns:xlink="http://www.w3.org/1999/xlink" viewBox="0 0 531 127.64"><defs><style>.cls-1,.cls-4{fill:none;}.cls-2{clip-path:url(#clip-path);}.cls-3{fill:#60A5F9;}.cls-4{stroke:#60A5F9;}</style><clipPath id="clip-path" transform="translate(-1.89 -1.17)"><rect class="cls-1" width="532.8" height="128.88"/></clipPath></defs><title>Daily News Logo</title><g class="cls-2"><path class="cls-3" d="M90.88,65.46a45.29,45.29,0,0,1-5.71,13,36.14,36.14,0,0,1-8.4,9,43.76,43.76,0,0,1-10.15,5.7,50.4,50.4,0,0,1-11.08,3A74.86,74.86,0,0,1,44.46,97H1.89V95.68A18.8,18.8,0,0,0,7.55,94a11,11,0,0,0,4.14-3.18,4.69,4.69,0,0,0,.87-2.25c.2-1.06.37-2.25.53-3.58s.27-2.74.35-4.24.12-3,.12-4.38c0-1.23,0-2.91,0-5s.08-4.44.12-7,.06-5.1.06-7.75V18.27q0-2.38-.18-4.44a30.15,30.15,0,0,0-.52-3.71A6.43,6.43,0,0,0,12,7.54a9.32,9.32,0,0,0-4.2-3.32A24.58,24.58,0,0,0,2.36,2.9V1.57q4.89,0,14.11-.06t22.28-.07h7.46a73.4,73.4,0,0,1,7.7.4,59,59,0,0,1,7.7,1.32A35.79,35.79,0,0,1,69.19,6,42.74,42.74,0,0,1,78.4,12a38.85,38.85,0,0,1,7.53,8.82,45.65,45.65,0,0,1,5.13,11.79A55.68,55.68,0,0,1,93,48,65.62,65.62,0,0,1,90.88,65.46ZM76.54,33.25a51.06,51.06,0,0,0-5.83-13.19,40.41,40.41,0,0,0-8.87-10,25.8,25.8,0,0,0-11.19-5.3,50.42,50.42,0,0,0-5.14-.86,60.14,60.14,0,0,0-6.88-.33c-.93,0-1.94,0-3,.07s-2.16.13-3.21.26-2,.25-2.91.33a10.33,10.33,0,0,0-2.16.4q-.59,6.49-.7,17.89T26.5,49.68V65.19c0,4.6,0,8.35.12,11.27,0,1.24.06,2.58.17,4s.25,2.87.41,4.24A19.9,19.9,0,0,0,28,88.45a7,7,0,0,0,1.22,2.45,10.38,10.38,0,0,0,5.89,3.38,33.28,33.28,0,0,0,6.71.73,56.7,56.7,0,0,0,6-.33,26,26,0,0,0,5.77-1.26,31.67,31.67,0,0,0,18.84-16q6.24-11.86,6.24-29.22A53.83,53.83,0,0,0,76.54,33.25Z" transform="translate(-1.89 -1.17)"/><path class="cls-3" d="M146.29,88.92a17,17,0,0,1-2.45,4.3,9.88,9.88,0,0,1-8.05,3.91,10.52,10.52,0,0,1-7.06-2.65c-2.06-1.76-3.09-4.86-3.09-9.27l-.23-.14a34.3,34.3,0,0,1-2.51,3.85,24.34,24.34,0,0,1-3.73,4,18.09,18.09,0,0,1-4.78,3A14.36,14.36,0,0,1,108.61,97a12.69,12.69,0,0,1-3.79-.6,8.6,8.6,0,0,1-3.5-2.12,11.41,11.41,0,0,1-2.56-3.91,15,15,0,0,1-1-5.83,11.68,11.68,0,0,1,2.62-7.16,30.71,30.71,0,0,1,6.47-6.22c2.57-1.86,4.84-3.45,6.83-4.78s3.71-2.45,5.19-3.38,2.78-1.72,3.9-2.38,2.08-1.26,2.86-1.79V45.18a4.93,4.93,0,0,0-.41-1.26,7,7,0,0,0-1.4-2.06,9.56,9.56,0,0,0-2.74-1.92,10.37,10.37,0,0,0-4.55-.86,9.84,9.84,0,0,0-3.67.73,12.62,12.62,0,0,0-3.21,1.86,11.92,11.92,0,0,0-2.21,2.25,3.47,3.47,0,0,0-.82,1.92v6a4.33,4.33,0,0,1-1.69,3.32,5.53,5.53,0,0,1-3.68,1.46,4.11,4.11,0,0,1-3.2-1.53,5.11,5.11,0,0,1-1.34-3.51,6.14,6.14,0,0,1,.7-2.92,9.91,9.91,0,0,1,1.74-2.38,13.44,13.44,0,0,1,2.28-1.86c.82-.53,1.53-1,2.16-1.46q3-2,6.18-3.84a67.15,67.15,0,0,1,6-3.18A51,51,0,0,1,121,33.78a13.1,13.1,0,0,1,3.91-.8,10.17,10.17,0,0,1,5.72,1.79,10.46,10.46,0,0,1,3.85,4.44,9.31,9.31,0,0,1,.58,3.25c.08,1.55.12,3.07.12,4.57,0,3.18,0,6.06-.06,8.62s-.06,5-.06,7.42,0,4.84-.06,7.36-.06,5.28-.06,8.28q0,6,1.81,7.89a6,6,0,0,0,8.11.66A6.62,6.62,0,0,0,146.64,84h.69A15.19,15.19,0,0,1,146.29,88.92ZM125.64,61a45.11,45.11,0,0,1-5.25,3.64q-3.15,1.93-6.12,4.18a28.2,28.2,0,0,0-5.13,5A9.64,9.64,0,0,0,107,79.9a10.07,10.07,0,0,0,2.1,6.23,6.54,6.54,0,0,0,5.48,2.79,16.66,16.66,0,0,0,5.37-.8,10.11,10.11,0,0,0,4.31-3.05,5.15,5.15,0,0,0,1.4-3.71Z" transform="translate(-1.89 -1.17)"/><path class="cls-3" d="M144,97V95.68c.94-.09,1.87-.2,2.8-.34a10.12,10.12,0,0,0,2.51-.66,5.51,5.51,0,0,0,1.87-1.26,2.78,2.78,0,0,0,.75-2V46a8.51,8.51,0,0,0-.17-1.85,2.67,2.67,0,0,0-1-1.46,20.33,20.33,0,0,0-2.51-1.59,29.37,29.37,0,0,0-3.09-1.46v-.79L160.86,33h.7V92.23a3,3,0,0,0,1,1.92,4.57,4.57,0,0,0,1.8.86,11.38,11.38,0,0,0,2.28.33,14.64,14.64,0,0,1,2.39.34V97Zm16.74-79.85a5.81,5.81,0,0,1-8.92-.07,7.34,7.34,0,0,1-1.87-5,7.16,7.16,0,0,1,1.81-5,6.06,6.06,0,0,1,9,0,7.2,7.2,0,0,1,1.81,5A7.48,7.48,0,0,1,160.69,17.15Z" transform="translate(-1.89 -1.17)"/><path class="cls-3" d="M168.91,97V95.54q5.37-.39,7.12-1.26a3,3,0,0,0,1.75-3V15.09a5.24,5.24,0,0,0-.18-1.59,3,3,0,0,0-1-1.19c-.7-.44-1.75-1.13-3.15-2.06A29.8,29.8,0,0,0,170,8.2V7.4l16.68-6.23h.82V92a3.15,3.15,0,0,0,.52,2,2.8,2.8,0,0,0,1.58.93,12.92,12.92,0,0,0,2.68.33c1.09.05,2.37.16,3.85.33V97Z" transform="translate(-1.89 -1.17)"/><path class="cls-3" d="M242.33,36a8.35,8.35,0,0,0-2.56.67,5.69,5.69,0,0,0-2.16,1.65,8.79,8.79,0,0,0-1.52,3.25l-1.86,6.76q-1.29,4.64-3,10.93t-3.85,13.85q-2.09,7.56-4.25,15.51t-4.32,15.77q-2.16,7.83-4.14,14.85c-.93,3.36-2.25,5.78-4,7.29a8,8,0,0,1-5.25,2.25,6.58,6.58,0,0,1-4.32-1.67,5.45,5.45,0,0,1-2-4.36,6.84,6.84,0,0,1,1.4-4.42,4.53,4.53,0,0,1,3.73-1.74,5.22,5.22,0,0,1,3.91,1.61c1.05,1.07,2.12,2.18,3.21,3.35h.23q1.28-3.58,2.27-7.09c.66-2.34,1.25-4.46,1.75-6.36s.92-3.51,1.23-4.83.5-2.21.58-2.65c-.16-.35-.58-1.61-1.28-3.77s-1.6-4.94-2.68-8.34-2.34-7.22-3.74-11.46-2.82-8.58-4.25-13l-4.26-13.18q-2.1-6.48-3.85-11.92a8.2,8.2,0,0,0-2.51-2.11,14.54,14.54,0,0,0-5.42-1.06V34.31h25.42v1.46a22.91,22.91,0,0,0-4.25,1.06c-1.21.44-1.81,1.5-1.81,3.18a17.81,17.81,0,0,0,.7,3.25q.7,2.58,1.87,6.42c.77,2.57,1.65,5.37,2.62,8.42l2.92,9.21q1.46,4.65,2.85,9c.94,2.87,1.75,5.37,2.45,7.49.24-.71.66-2.21,1.29-4.51s1.36-5,2.21-8.15,1.75-6.43,2.68-9.87,1.79-6.7,2.57-9.75,1.42-5.65,1.92-7.82a25.53,25.53,0,0,0,.76-4,3,3,0,0,0-.58-1.92,3.77,3.77,0,0,0-1.57-1.13,8.76,8.76,0,0,0-2.16-.53c-.78-.08-1.52-.17-2.22-.26V34.31h18v1.46Z" transform="translate(-1.89 -1.17)"/><path class="cls-3" d="M351.38,5.42a11.48,11.48,0,0,0-4,5.69,25.42,25.42,0,0,0-1.05,7.36c-.16,3.58-.31,7.4-.47,11.47q-.22,5.7-.4,13.45T345.26,60v8.49q0,4.63.06,9.47t.06,9.61v8.62a1.28,1.28,0,0,1-.29.86,1.12,1.12,0,0,1-.88.33,3.12,3.12,0,0,1-2.1-1.33Q332.2,83.1,324,72.22L308.46,51.47Q301,41.6,293.94,32.19t-15-19.48V68.64q0,6.75.29,12.19a24.6,24.6,0,0,0,1.45,8.09,9.13,9.13,0,0,0,4,4.57,22,22,0,0,0,7.52,2.19V97H263.5V95.68A20.9,20.9,0,0,0,269.1,94a9.5,9.5,0,0,0,4.43-4.18,19.91,19.91,0,0,0,2.1-8.21q.47-5.44.7-13,.23-5.7.35-13.46t.12-16.63V22.38q0-2.65-.12-6.49a17,17,0,0,0-1.63-6.3,11.79,11.79,0,0,0-3-3.84,11,11,0,0,0-3.79-2,28.14,28.14,0,0,0-3.9-.86V1.57H288L343.28,75V29.94q0-5.31-.12-10.14a27,27,0,0,0-1.05-7.62,12.08,12.08,0,0,0-4.14-6A19,19,0,0,0,329.4,2.9V1.57h28.92V2.9A16.14,16.14,0,0,0,351.38,5.42Z" transform="translate(-1.89 -1.17)"/><path class="cls-3" d="M406.73,83.42a25,25,0,0,1-4.43,6.69,23.7,23.7,0,0,1-6.71,5,19,19,0,0,1-8.69,2,23.36,23.36,0,0,1-10.85-2.51,24.32,24.32,0,0,1-8.34-7.1,34,34,0,0,1-5.3-10.73,44.63,44.63,0,0,1-1.87-13.06,36.14,36.14,0,0,1,1.75-11.06,34.07,34.07,0,0,1,5-9.88,25.91,25.91,0,0,1,7.81-7.09A19.72,19.72,0,0,1,385.27,33a27.32,27.32,0,0,1,8.57,1.33,19.06,19.06,0,0,1,7,4,20.8,20.8,0,0,1,4.84,6.83,27.46,27.46,0,0,1,2.21,9.67H370.45c0,.71,0,1.53-.11,2.46s-.12,1.87-.12,2.84a40.23,40.23,0,0,0,1.4,10.67,29.53,29.53,0,0,0,4.08,9A19.67,19.67,0,0,0,382.47,86a19.25,19.25,0,0,0,9.45,2.25,16.16,16.16,0,0,0,10.2-3.38,15.73,15.73,0,0,0,5.77-8.28l.94.26A26.53,26.53,0,0,1,406.73,83.42ZM393.37,38.75a9.92,9.92,0,0,0-8-3.51,9,9,0,0,0-5.89,2.18,23.44,23.44,0,0,0-4.55,5.11,27.15,27.15,0,0,0-3,5.89A26.31,26.31,0,0,0,370.69,53h4.78c1.4,0,2.78,0,4.14-.07l4.26-.13c1.47,0,3.11-.07,4.9-.07,1.16,0,2.25,0,3.26-.13a8.24,8.24,0,0,0,2.68-.66,9.55,9.55,0,0,0,1.23-2,7.29,7.29,0,0,0,.41-2.78A12.57,12.57,0,0,0,393.37,38.75Z" transform="translate(-1.89 -1.17)"/><path class="cls-3" d="M492.05,36a7.74,7.74,0,0,0-2.86.86,9.72,9.72,0,0,0-2.74,2.26,13.82,13.82,0,0,0-2.39,4.3c-.94,2.48-2,5.37-3.33,8.69s-2.6,6.78-4,10.4-2.73,7.22-4.09,10.8-2.58,6.92-3.67,10c-.7,1.68-1.28,3.11-1.75,4.31s-.89,2.25-1.28,3.18-.76,1.83-1.11,2.71-.76,1.86-1.22,2.92c-.32.53-.67.8-1,.8s-.65-.09-.76-.27a2.12,2.12,0,0,1-.29-.66l-2.92-9.88q-1.39-4.69-2.92-9.74t-3.26-11q-1.76-6-4.08-13.65L437.29,84.94a58.09,58.09,0,0,0-2.45,6.1q-.82,2.52-2,5.43a1.36,1.36,0,0,1-1.16.8q-.58,0-1.05-.93-4.54-12.6-8.87-24.52T412.56,46.5c-.47-1.23-1-2.58-1.58-4a37.16,37.16,0,0,0-1.8-3.91,26.13,26.13,0,0,0-2-1.66q-1.35-1-5.19-1.12V34.31h26.24v1.46c-.55.09-1.19.18-1.93.26a13.41,13.41,0,0,0-2.21.47c-.74.22-1.44.46-2.1.73a4,4,0,0,0-1.58,1.06c.16.7.76,2.63,1.81,5.76s2.35,6.87,3.91,11.2,3.22,8.93,5,13.79,3.43,9.32,4.9,13.38c.62-1.76,1.36-3.89,2.22-6.36s1.79-5.21,2.8-8.22,2-6.14,3.09-9.41,2.08-6.49,3.09-9.67c-.54-1.77-1.13-3.47-1.75-5.11s-1.32-3.24-2.1-4.83a6.3,6.3,0,0,1-.64-.87,3.86,3.86,0,0,0-.93-.92,5.81,5.81,0,0,0-1.81-.8,16.63,16.63,0,0,0-3.27-.46V34.31h26.6v1.46L461,36.1a18.34,18.34,0,0,0-2.74.6,7.53,7.53,0,0,0-2.33,1.12,2.55,2.55,0,0,0-1,2.19,17,17,0,0,0,.64,3.11q.65,2.46,1.69,6t2.39,8c.89,2.91,1.81,5.83,2.74,8.74s1.85,5.77,2.74,8.55,1.69,5.24,2.39,7.36q.7-1.73,2-5.1c.85-2.26,1.77-4.78,2.74-7.56s2-5.65,3-8.61,2-5.75,2.8-8.35,1.5-4.93,2-7a20,20,0,0,0,.82-4.24,4.65,4.65,0,0,0-.76-2.85,4.49,4.49,0,0,0-1.87-1.46,8.39,8.39,0,0,0-2.39-.6c-.85-.08-1.63-.17-2.33-.26V34.31H494.9v1.46Z" transform="translate(-1.89 -1.17)"/><path class="cls-3" d="M529.72,86.6a17.1,17.1,0,0,1-4.84,6.16,19.33,19.33,0,0,1-6.94,3.45,31.6,31.6,0,0,1-8.22,1.06A42.86,42.86,0,0,1,500,96.21a36.23,36.23,0,0,1-8.4-3V75.66h.93q.93,3.18,2.32,6.7a35.84,35.84,0,0,0,3.37,6.49,17.83,17.83,0,0,0,4.77,4.9,11.29,11.29,0,0,0,6.62,1.93A11.4,11.4,0,0,0,518.53,92q3.32-3.65,3.32-11.2A10.28,10.28,0,0,0,519.58,74a11.13,11.13,0,0,0-6.22-3.65q-3.14-.66-6-1.46a49.2,49.2,0,0,1-5.22-1.72,14.77,14.77,0,0,1-7.15-6A18.46,18.46,0,0,1,492.22,51a17.59,17.59,0,0,1,11.55-16.77A20.5,20.5,0,0,1,511,33a33.83,33.83,0,0,1,8.63,1,51.42,51.42,0,0,1,7.12,2.45l1.39,16.44-.93.26q-1.63-4-3.26-7.36a30.39,30.39,0,0,0-3.62-5.83,14.47,14.47,0,0,0-4.49-3.77,12.1,12.1,0,0,0-5.77-1.33A10.12,10.12,0,0,0,502.78,38a12,12,0,0,0-2.4,3.85,14.31,14.31,0,0,0-.93,5.37q0,4.9,2.45,7a15.74,15.74,0,0,0,6.18,3.18c1.71.44,3.58.91,5.6,1.39s3.77,1,5.25,1.39a17.1,17.1,0,0,1,8.92,6.1,17.8,17.8,0,0,1,3.68,11.4A20.62,20.62,0,0,1,529.72,86.6Z" transform="translate(-1.89 -1.17)"/></g><line class="cls-4" x1="5.59" y1="122.2" x2="189" y2="122.2"/><g class="cls-2"><line class="cls-4" x1="217.8" y1="122.2" x2="531" y2="122.2"/></g></svg>