<?xml version="1.0" encoding="utf-8"?>
<!-- Generator: Adobe Illustrator 14.0.0, SVG Export Plug-In . SVG Version: 6.00 Build 43363)  -->
<!DOCTYPE svg PUBLIC "-//W3C//DTD SVG 1.1//EN" "http://www.w3.org/Graphics/SVG/1.1/DTD/svg11.dtd">
<svg version="1.1" id="Layer_1" xmlns="http://www.w3.org/2000/svg" xmlns:xlink="http://www.w3.org/1999/xlink" x="0px" y="0px"
	 width="569px" height="64px" viewBox="0 0 569 64" enable-background="new 0 0 569 64" xml:space="preserve">
<g>
	<g>
		<defs>
			<rect id="SVGID_1_" width="569" height="64"/>
		</defs>
		<clipPath id="SVGID_2_">
			<use xlink:href="#SVGID_1_"  overflow="visible"/>
		</clipPath>
		<g clip-path="url(#SVGID_2_)">
			<g enable-background="new    ">
				<path fill="#60A5F9" d="M60.714,63.062L42.481,3.807h-6.584v-2.11h25.323v2.11h-8.61l12.493,42.627h0.169L77.427,3.807h-8.103
					v-2.11h27.18v2.11h-8.609l11.058,42.627h0.169l14.096-42.627h-8.104v-2.11h17.895v2.11h-7.09L95.829,63.062h-1.857L79.2,7.773
					h-0.169l-16.46,55.289H60.714z"/>
			</g>
			<g enable-background="new    ">
				<path fill="#60A5F9" d="M108.744,62.05v-2.11h6.584l15.194-42.121h3.292l15.363,42.121h6.5v2.11h-22.707v-2.11h7.597
					l-4.643-12.83h-13.506l-4.558,12.83h7.09v2.11H108.744z M135.164,44.999l-5.909-16.545h-0.169l-5.909,16.545H135.164z"/>
			</g>
			<g enable-background="new    ">
				<path fill="#60A5F9" d="M159.221,62.05v-2.11h7.259V20.942h-7.259v-2.11h22.369v2.11h-7.006v16.797h3.714l11.733-16.797h-5.318
					v-2.11h15.194v2.11h-6.921l-8.948,12.83l16.629,26.167h6.416v2.11h-22.2v-2.11h5.655l-12.239-20.09h-3.714v20.09h7.006v2.11
					H159.221z"/>
			</g>
			<g enable-background="new    ">
				<path fill="#60A5F9" d="M209.614,62.05v-2.11h7.259V20.942h-7.259v-2.11h37.9l0.506,13.59h-2.532
					c-0.62-7.652-4.221-11.479-10.805-11.479h-9.707v17.726h4.474c2.532,0,4.206-0.688,5.022-2.068
					c0.815-1.378,1.224-3.727,1.224-7.048h2.026v20.85h-2.026c0-4.107-0.409-6.738-1.224-7.893c-0.816-1.152-2.885-1.73-6.204-1.73
					h-3.292v19.161h7.85c4.951,0,8.483-1.068,10.593-3.207s3.419-5.487,3.925-10.045h2.532l-0.506,15.362H209.614z"/>
			</g>
			<g enable-background="new    ">
				<path fill="#60A5F9" d="M285.328,63.062L267.096,3.807h-6.584v-2.11h25.323v2.11h-8.61l12.493,42.627h0.169l12.154-42.627
					h-8.103v-2.11h27.18v2.11h-8.609l11.058,42.627h0.169l14.097-42.627h-8.104v-2.11h17.895v2.11h-7.09l-20.09,59.256h-1.857
					L303.814,7.773h-0.169l-16.46,55.289H285.328z"/>
			</g>
			<g enable-background="new    ">
				<path fill="#60A5F9" d="M343.15,62.05v-2.11h7.259V20.942h-7.259v-2.11h37.9l0.506,13.59h-2.532
					c-0.62-7.652-4.221-11.479-10.805-11.479h-9.707v17.726h4.474c2.532,0,4.206-0.688,5.022-2.068
					c0.815-1.378,1.224-3.727,1.224-7.048h2.025v20.85h-2.025c0-4.107-0.408-6.738-1.224-7.893c-0.816-1.152-2.885-1.73-6.204-1.73
					h-3.292v19.161h7.851c4.951,0,8.482-1.068,10.593-3.207s3.419-5.487,3.925-10.045h2.533l-0.507,15.362H343.15z"/>
				<path fill="#60A5F9" d="M390.672,62.05v-2.11h7.26V20.942h-7.26v-2.11h37.9l0.506,13.59h-2.531
					c-0.621-7.652-4.221-11.479-10.805-11.479h-9.707v17.726h4.473c2.533,0,4.207-0.688,5.023-2.068
					c0.814-1.378,1.223-3.727,1.223-7.048h2.026v20.85h-2.026c0-4.107-0.408-6.738-1.223-7.893c-0.816-1.152-2.885-1.73-6.205-1.73
					h-3.291v19.161h7.85c4.951,0,8.482-1.068,10.594-3.207c2.109-2.139,3.418-5.487,3.925-10.045h2.532L430.43,62.05H390.672z"/>
				<path fill="#60A5F9" d="M438.194,62.05v-2.11h7.259V20.942h-7.259v-2.11h22.368v2.11h-7.006v16.797h3.715l11.732-16.797h-5.318
					v-2.11h15.194v2.11h-6.921l-8.948,12.83l16.629,26.167h6.415v2.11h-22.199v-2.11h5.654l-12.238-20.09h-3.715v20.09h7.006v2.11
					H438.194z"/>
			</g>
			<g enable-background="new    ">
				<path fill="#60A5F9" d="M488.164,62.05v-2.11h7.26V20.942h-7.26v-2.11h23.298v2.11h-7.935v38.997h10.213
					c2.25,0,4.15-0.38,5.698-1.14c1.547-0.76,2.729-1.899,3.546-3.418c0.814-1.52,1.405-2.968,1.771-4.348
					c0.365-1.378,0.718-3.137,1.056-5.275h2.026V62.05H488.164z"/>
			</g>
			<g enable-background="new    ">
				<path fill="#60A5F9" d="M535.518,62.05v-2.11h7.429V40.947l-12.408-20.005h-6.247v-2.11h23.213v2.11h-7.344l10.215,17.135
					l9.538-17.135h-7.344v-2.11h16.46v2.11h-6.331l-11.648,20.68v18.317h7.429v2.11H535.518z"/>
			</g>
		</g>
	</g>
	<g>
		<defs>
			<rect id="SVGID_3_" width="569" height="64"/>
		</defs>
		<clipPath id="SVGID_4_">
			<use xlink:href="#SVGID_3_"  overflow="visible"/>
		</clipPath>
		<g clip-path="url(#SVGID_4_)">
			<g enable-background="new    ">
				<path fill="#60A5F9" d="M24.393,54.48H1.618v2.973c0,1.129,0.357,2.073,1.071,2.834c0.714,0.76,1.561,1.301,2.54,1.624
					s2.056,0.507,3.231,0.553v1.037H0.547v-21.98h7.914v1.037c-1.866,0.069-3.474,0.519-4.821,1.348s-2.021,2.051-2.021,3.663v2.973
					h22.774v-3.802h0.864v11.543h-0.864V54.48z"/>
			</g>
			<g enable-background="new    ">
				<path fill="#60A5F9" d="M25.257,40.414h-0.864v-2.973H8.426v2.973H7.562v-8.985h0.863v2.696h7.258V26.59H8.426v2.695H7.562V20.3
					h0.863v2.972h15.967V20.3h0.864v8.985h-0.864V26.59h-7.845v7.535h7.845v-2.696h0.864V40.414z"/>
				<path fill="#60A5F9" d="M25.257,18.02h-0.864v-2.972H8.426v2.972H7.562V2.502l5.563-0.208v1.037
					c-3.133,0.254-4.7,1.728-4.7,4.424v3.975h7.258V9.898c0-1.037-0.282-1.722-0.847-2.056s-1.526-0.501-2.886-0.501v-0.83h8.536
					v0.83c-1.682,0-2.759,0.167-3.231,0.501c-0.472,0.334-0.708,1.181-0.708,2.54v1.348h7.845V8.516
					c0-2.027-0.438-3.473-1.313-4.337c-0.875-0.864-2.246-1.399-4.112-1.607V1.535l6.29,0.207V18.02z"/>
			</g>
		</g>
	</g>
</g>
</svg>
