<?xml version="1.0" encoding="utf-8"?>
<!-- Generator: Adobe Illustrator 24.1.3, SVG Export Plug-In . SVG Version: 6.00 Build 0)  -->
<svg version="1.1" id="Layer_1" xmlns="http://www.w3.org/2000/svg" xmlns:xlink="http://www.w3.org/1999/xlink" x="0px" y="0px"
	 viewBox="0 0 584 90.2" style="enable-background:new 0 0 584 90.2;" xml:space="preserve">
<style type="text/css">
	.st0{clip-path:url(#SVGID_2_);}
	.st1{enable-background:new    ;}
	.st2{fill:#60A5F9;}
	.st3{clip-path:url(#SVGID_4_);}
	.st4{clip-path:url(#SVGID_6_);}
</style>
<g>
	<g>
		<g>
			<defs>
				<rect id="SVGID_1_" width="584" height="90.2"/>
			</defs>
			<clipPath id="SVGID_2_">
				<use xlink:href="#SVGID_1_"  style="overflow:visible;"/>
			</clipPath>
			<g class="st0">
				<g class="st1">
					<path class="st2" d="M54.5,19.3c-2.4,0-4.2-0.5-6.3-0.8v51.8c6.7-0.2,13.8-2.8,17.5-5.7l0.6,2c-5,7.2-12.2,12.8-25.9,12.8
						c-18.4,0-32-12.7-32-32.1c0-14.5,9.7-25.2,22-31.7c-2.4-0.2-4.9-0.4-8-0.4c-6.7,0-14,3.2-19,19.4l-1.8-1.4
						C7.9,14.1,12.7,5.5,25.1,5.5C37.3,5.5,45,9.9,59,9.9c1.6,0,3.1-0.5,6.4-4.8l1.3,1.2C60.8,16.4,59.2,19.3,54.5,19.3z M32.1,15.8
						h-0.2C26.3,21.2,20,30.2,20,42.2c0,8.4,2,14.9,5.7,19.6l3.3-2.3c2.1-1.6,3.1-3.7,3.1-9.3V15.8z M46.5,18.1
						c-1.9-0.2-1.9-0.4-4-0.8v35c0,0-10.2,6.9-15.6,10.7c4.6,4.8,11.2,7.2,19.6,7.3V18.1z"/>
				</g>
				<g class="st1">
					<path class="st2" d="M95.7,32.5v36.3c0,8.5-2.7,15.4-15.6,20.9L78.5,89c5-4.1,7.2-8.1,7.2-17.2V31.3c-1.5-1-2.9-1.7-5.2-3.2
						l-3.1,2.4v38.3c0.7,0.7,2.3,1.7,3.3,2.4v0.2c-1.9,1.6-5.5,4.8-7.1,6.5c-2.3-1.9-5.9-4.7-7.9-6v-0.4c1-0.5,1.6-1.7,1.6-4.7v-58
						c0-2.3-0.2-3.9-1-4.9l0.4-0.2c1.4,0.4,3.4,2,4.1,4H71c1.5-3.2,3.4-6.1,7.6-7.4l0.3,0.2C78,1.9,77.3,3.6,77.3,7v21.3
						c2.5-1.9,6.5-5.5,8.9-7.7c3,2.1,7.2,4.7,10.8,7V28C95.8,28.8,95.7,30.2,95.7,32.5z"/>
				</g>
				<g class="st1">
					<path class="st2" d="M113,48.5v15.6c5.9,3.8,8.3,4.8,10.1,4.8c0.7,0,1.4-0.4,2-1.1l0.9-0.9l1.5,1.6c-2.2,2.1-6.9,6.8-9.3,9.5
						c-4.1-2.7-11.8-7-16.8-9.4v-0.4c1.2-0.9,1.6-1.7,1.6-4.8V28.5c5-1.4,11.3-4.2,17.1-7.9c2.8,5,5.8,10.4,8.6,14.6
						c0.5-0.4,1-1,1.3-1.4h0.1c0.1,0.5,0.3,2.5,0.3,2.9C126.5,40,118.8,45.4,113,48.5z M113.2,27l-0.2,0.1V46c3.4-1.8,6-3.6,8.1-5.1
						C118.8,37,115.3,30.8,113.2,27z"/>
				</g>
				<g class="st1">
					<path class="st2" d="M214.4,68.7c-2.8,3-6.2,5.6-9.8,9.4c-4.9-3.4-12.7-7.5-18.1-10l-12.3,10c-7.1-4.3-13.7-7.5-21.3-10.1
						l-0.1-0.6c3.2-2.3,5.3-5.7,5.3-11.4V43.2h-1.3c-4.7,0-7.8,1.2-9.3,4.4l-0.9-0.4c1-10,5.5-14.3,11.2-14.3h0.3V21.3
						c-7.8-5.4-9.8-6.6-11.5-6.6c-1.4,0-1.9,0.6-4.5,2.6l-1.2-1.4c5.3-4.5,8.1-6.9,12.8-10.8c3.8,2.8,9.1,6.8,15.2,11.2l4.4-3.3v-1
						c0-2.4-0.5-5-0.9-6.3V5.5l2.1,0.3c0.3,1.2,0.6,3.5,0.6,5.3v0.7c2.6-1.9,5.1-3.7,8.7-6.4c5,3.7,8.6,6.1,13.8,9.2
						c1.6-1.1,2.9-2.1,4.5-3.2c-0.1-2.2-0.5-4.6-0.9-5.7V5.5l2.1,0.3c0.2,1,0.5,2.8,0.6,4.5c2.2-1.7,4.1-3.1,6.3-4.8
						c8.4,2,17.1,7.2,17.1,21v20.1C227.3,55.7,225,57.5,214.4,68.7z M173.3,15.2l-4,3v30.3c0,5.1-2.1,8.5-7.8,12.7v0.3
						c3.6,0.8,7.5,1.7,11.7,3.2V15.2H173.3z M187,20.7c-4.4-3-8.1-5.4-11.3-7.5l-0.7,0.6v23l11.9-5.4V20.7H187z M187,33.1l-11.9,5.3
						v7.5l11.9-5.4V33.1z M187,42.1l-11.9,5.3v18c2.1,0.9,4.9,2.4,7.2,3.6l4.8-3.9v-23H187z M202.1,13.7l-3.8,2.7v45.7
						c1.2,0.5,2.4,0.9,3.8,1.7V13.7z M216.1,30.4c0-10-4-15-12-17h-0.2V37l12.2-5.6V30.4z M216.1,33.1l-12.2,5.5v7.5l12.2-5.6V33.1z
						 M216.1,42.1l-12.2,5.5v17.1c3,1.4,5.3,2.7,7.8,4.3c3.6-3.8,4.5-6,4.5-11.9v-15H216.1z"/>
					<path class="st2" d="M243.5,78c-2.1-1.6-6.5-4.8-9.2-6.5v-0.4c1.3-0.8,1.6-1.8,1.6-4.6V30.4l-1.3-0.8c-2-1.3-2.7-1.3-3.8-1.3
						l-0.1-0.4l7.6-7.3c2.1,1.6,6.3,4.7,9.2,6.6v0.4c-1.2,0.7-1.6,1.6-1.6,4.3v36.4c3,1.9,4.1,2.1,4.9,2.1l0.2,0.3L243.5,78z
						 M238.8,17l-0.6-4.2c2.3-2.5,7.4-8,9-10.4c0.8,1,2,4.2,2.9,6.4C248.1,10.7,242.1,14.8,238.8,17z"/>
				</g>
				<g class="st1">
					<path class="st2" d="M261.7,78c-2.8-2.1-6.8-4.8-9.3-6.5v-0.4c1.2-0.5,1.6-1.7,1.6-4.7V8.9c0-2.3-0.2-3.9-1-4.9l0.4-0.2
						c1.4,0.4,3.3,1.9,4.1,4h0.2c1.3-3.3,4.2-6.4,7.6-7.4l0.3,0.2C264.8,2,264,3.7,264,7.1v61.2c1.6,1.2,3.8,2.3,4.9,2.2l0.2,0.2
						C267.3,72.5,264.1,75.7,261.7,78z"/>
					<path class="st2" d="M298.7,52.7v16.8c-5.1,1.9-10.7,4.9-15.9,8.5c-2.7-1.9-6.4-4-9.8-4.8c-0.2,0.6-0.4,1.6-0.4,3
						c0,0.6,0,1.2,0.1,1.7h-0.1c-0.6-0.4-2.1-1.4-2.5-1.8c0.5-10.7,6.8-18.9,10.5-23.4c-2.7-1.3-7.8-3.9-9.6-4.7v-0.4
						c1.1-0.6,1.6-1.6,1.6-3.5v-16c4.9-1.5,10.5-4.4,14.5-7.4c3.1,2.4,6.3,5,9.9,7.2c0.5-1.3,1-3.7,1-5l0.1-0.1
						c0.6,0.5,1.6,1.7,1.9,2.2c-0.6,4.1-3.2,10.5-9.7,18.8l10,4.8V49C299.3,49.7,298.7,50.7,298.7,52.7z M288.8,52.9l-3.7-1.7
						c-2.9,3.2-7.8,9.8-9.6,14.1c5.3,0.9,10,3.5,13.1,5.9l0.2-0.1V52.9z M293.1,34.8c-3.4-1.8-7.6-5.1-10.3-7.5h-0.2v16.5
						c0.9,0.5,1.9,1,2.9,1.4C287.8,42.9,291.7,37.7,293.1,34.8L293.1,34.8z"/>
				</g>
				<g class="st1">
					<path class="st2" d="M333.2,33.4v33.8c-4.5,2.5-11.4,6.9-16.7,10.8c-4.3-2.9-9.2-6-13.3-8.3v-0.4c1.2-0.5,1.6-1.7,1.6-3.8v-34
						c4.9-2.8,11.6-7.1,16.7-10.8c4.1,2.6,9.1,5.8,13.3,8.1v0.4C334,29.8,333.2,30.6,333.2,33.4z M323.2,32.6
						c-2.2-1.6-5.5-3.6-8.1-5l-0.3,0.1V66c2.1,1.6,5.9,3.9,8.1,5.1l0.2-0.2L323.2,32.6L323.2,32.6z"/>
				</g>
			</g>
		</g>
	</g>
	<g>
		<g>
			<defs>
				<rect id="SVGID_3_" width="584" height="90.2"/>
			</defs>
			<clipPath id="SVGID_4_">
				<use xlink:href="#SVGID_3_"  style="overflow:visible;"/>
			</clipPath>
			<g class="st3">
				<g class="st1">
					<path class="st2" d="M367.3,78.1c-2.4-1.8-7.3-5.2-9.3-6.6v-0.4c1-0.6,1.6-1.7,1.6-4.7V31.5c-1.7-1.4-3.4-2.3-4.9-3.4
						c0,0-2.8,2.2-3.4,2.7v38c1.2,1,2,1.5,3.3,2.4v0.1c-2.3,2-5,4.6-7.1,6.6c-2.9-2.2-6-4.7-7.9-6v-0.4c0.9-0.7,1.6-1.7,1.6-4.9
						V30.4c-1.8-1.5-3.6-2.1-4.9-2.2l-0.2-0.2c2.8-2.6,4.9-4.7,7.4-7.3c3.1,2.4,6.6,4.9,8.8,6.5h0.1l7.7-6.5
						c3.2,2.2,7.6,5.2,11.1,7.4v0.4c-1.1,0.8-1.6,1.8-1.6,3.9v36c1.6,1.2,3.8,2.3,4.9,2.2l0.2,0.2C372.8,72.6,369.6,75.8,367.3,78.1
						z"/>
				</g>
				<g class="st1">
					<path class="st2" d="M437.8,19.3c-2.4,0-4.2-0.5-6.3-0.8v51.8c6.7-0.2,13.8-2.8,17.5-5.7l0.6,2c-5,7.2-12.2,12.8-25.9,12.8
						c-18.4,0-32-12.7-32-32.1c0-14.5,9.7-25.2,22-31.7c-2.4-0.2-4.9-0.4-8-0.4c-6.7,0-14,3.2-19,19.4l-1.8-1.4
						c6.3-19.2,11.2-27.7,23.5-27.7c12.2,0,19.9,4.4,33.9,4.4c1.6,0,3.1-0.5,6.4-4.8l1.3,1.2C444.1,16.4,442.4,19.3,437.8,19.3z
						 M415.4,15.8h-0.2c-5.6,5.4-11.9,14.5-11.9,26.4c0,8.4,2,14.9,5.7,19.6l3.3-2.3c2.1-1.6,3.1-3.7,3.1-9.3V15.8z M429.7,18.1
						c-1.9-0.2-1.9-0.4-4-0.8v35c0,0-10.2,6.9-15.6,10.7c4.6,4.8,11.2,7.2,19.6,7.3V18.1z"/>
				</g>
				<g class="st1">
					<path class="st2" d="M458.1,78c-2.1-1.6-6.5-4.8-9.2-6.5v-0.4c1.3-0.8,1.6-1.8,1.6-4.6V30.4l-1.3-0.8c-2-1.3-2.7-1.3-3.8-1.3
						l-0.1-0.4l7.6-7.3c2.1,1.6,6.3,4.7,9.2,6.6v0.4c-1.2,0.7-1.6,1.6-1.6,4.3v36.4c3,1.9,4.1,2.1,4.9,2.1l0.2,0.3L458.1,78z
						 M453.5,17l-0.6-4.2c2.3-2.5,7.4-8,9-10.4c0.8,1,2,4.2,2.9,6.4C462.7,10.7,456.8,14.8,453.5,17z"/>
				</g>
				<g class="st1">
					<path class="st2" d="M514.4,78c-2.9-2.2-6.8-4.8-9.3-6.5v-0.4c1.2-0.8,1.6-1.6,1.6-4.7V31.5c-1.7-1.4-3.7-2.6-5.1-3.5
						c0,0-2.6,2.2-3.2,2.7v38.1c1.2,1,2,1.5,3.3,2.4v0.1c-2.3,2-7.1,6.6-7.1,6.6c-1.9-1.6-7.9-6-7.9-6v-0.5c1-0.6,1.6-1.8,1.6-4.8
						V31.5c-1.8-1.4-3.8-2.5-5.1-3.4c0,0-2.6,2.1-3.2,2.6v38.1c1.2,1,2,1.5,3.3,2.4v0.1c-1.5,1.4-4.8,4.4-7.1,6.6
						c-1.9-1.6-5.5-4.4-7.9-6v-0.4c0.9-0.7,1.6-1.5,1.6-4.7V30.4c-2.3-1.7-3.6-2.1-4.8-2.2L465,28c2.8-2.6,4.9-4.7,7.4-7.3
						c3.1,2.4,6,4.6,8.8,6.5h0.1l7.7-6.5c3.2,2.2,6.8,4.7,10.3,6.8l8.1-6.8c3.3,2.3,7.4,5,11.1,7.4v0.4c-0.8,0.7-1.6,1.6-1.6,3.6
						v36.3c1.6,1.2,3.9,2.3,5,2.2l0.2,0.2L514.4,78z"/>
				</g>
				<g class="st1">
					<path class="st2" d="M535.6,48.5v15.6c5.9,3.8,8.3,4.8,10.1,4.8c0.7,0,1.4-0.4,2-1.1l0.9-0.9l1.5,1.6c-2.2,2.1-6.9,6.8-9.3,9.5
						c-4.1-2.7-11.8-7-16.8-9.4v-0.4c1.2-0.9,1.6-1.7,1.6-4.8V28.5c5-1.4,11.3-4.2,17.1-7.9c2.8,5,5.8,10.4,8.6,14.6
						c0.5-0.4,1-1,1.3-1.4h0.1c0.1,0.5,0.3,2.5,0.3,2.9C549,40,541.3,45.4,535.6,48.5z M535.7,27l-0.2,0.1V46c3.4-1.8,6-3.6,8.1-5.1
						C541.3,37,537.8,30.8,535.7,27z"/>
				</g>
			</g>
		</g>
	</g>
	<g>
		<g>
			<defs>
				<rect id="SVGID_5_" width="584" height="90.2"/>
			</defs>
			<clipPath id="SVGID_6_">
				<use xlink:href="#SVGID_5_"  style="overflow:visible;"/>
			</clipPath>
			<g class="st4">
				<g class="st1">
					<path class="st2" d="M581.7,52.7v16.8c-5.1,1.9-10.7,4.9-15.9,8.5c-2.7-1.9-6.4-4-9.8-4.8c-0.2,0.6-0.4,1.6-0.4,3
						c0,0.6,0,1.2,0.1,1.7h-0.1c-0.6-0.4-2.1-1.4-2.5-1.8c0.5-10.7,6.8-18.9,10.5-23.4c-2.7-1.3-7.8-3.9-9.6-4.7v-0.4
						c1.1-0.6,1.6-1.6,1.6-3.5v-16c4.9-1.5,10.5-4.4,14.6-7.4c3.1,2.4,6.3,5,9.9,7.2c0.5-1.3,1-3.7,1-5l0.1-0.1
						c0.6,0.5,1.6,1.7,1.9,2.2c-0.6,4.1-3.2,10.5-9.7,18.8l10,4.8V49C582.3,49.7,581.7,50.7,581.7,52.7z M571.8,52.9l-3.7-1.7
						c-2.9,3.2-7.8,9.8-9.6,14.1c5.3,0.9,10,3.5,13.1,5.9l0.2-0.1V52.9z M576.1,34.8c-3.4-1.8-7.6-5.1-10.3-7.5h-0.2v16.5
						c0.9,0.5,1.9,1,2.9,1.4C570.9,42.9,574.7,37.7,576.1,34.8L576.1,34.8z"/>
				</g>
			</g>
		</g>
	</g>
</g>
</svg>
